<?xml version="1.0" encoding="utf-8"?>
<!-- Generator: Adobe Illustrator 16.0.0, SVG Export Plug-In . SVG Version: 6.00 Build 0)  -->
<!DOCTYPE svg PUBLIC "-//W3C//DTD SVG 1.1//EN" "http://www.w3.org/Graphics/SVG/1.1/DTD/svg11.dtd">
<svg version="1.1" xmlns="http://www.w3.org/2000/svg" xmlns:xlink="http://www.w3.org/1999/xlink" x="0px" y="0px"
	 width="92.967px" height="81.629px" viewBox="0 0 92.967 81.629" enable-background="new 0 0 92.967 81.629" xml:space="preserve">
<g id="Layer_1">
	<rect fill="none" stroke="#000000" stroke-width="0.03" stroke-miterlimit="10" width="92.967" height="81.629"/>
	<circle fill="none" stroke="#000000" stroke-width="1.44" stroke-miterlimit="10" cx="6.934" cy="55.117" r="1.98"/>
	<circle fill="none" stroke="#000000" stroke-width="1.44" stroke-miterlimit="10" cx="6.934" cy="36.691" r="1.98"/>
	<circle fill="none" stroke="#000000" stroke-width="1.44" stroke-miterlimit="10" cx="19.69" cy="55.117" r="1.98"/>
	<circle fill="none" stroke="#000000" stroke-width="1.44" stroke-miterlimit="10" cx="19.69" cy="36.691" r="1.98"/>
	<circle fill="none" stroke="#000000" stroke-width="1.44" stroke-miterlimit="10" cx="35.734" cy="55.117" r="1.98"/>
	<circle fill="none" stroke="#000000" stroke-width="1.44" stroke-miterlimit="10" cx="35.734" cy="36.691" r="1.98"/>
	<circle fill="none" stroke="#000000" stroke-width="1.44" stroke-miterlimit="10" cx="48.49" cy="55.117" r="1.98"/>
	<circle fill="none" stroke="#000000" stroke-width="1.44" stroke-miterlimit="10" cx="48.49" cy="36.691" r="1.98"/>
	<circle fill="none" stroke="#000000" stroke-width="1.44" stroke-miterlimit="10" cx="62.89" cy="65.491" r="2.088"/>
	<circle fill="none" stroke="#000000" stroke-width="1.44" stroke-miterlimit="10" cx="62.89" cy="72.691" r="2.088"/>
	<circle fill="none" stroke="#000000" stroke-width="1.44" stroke-miterlimit="10" cx="62.89" cy="43.891" r="2.088"/>
	<circle fill="none" stroke="#000000" stroke-width="1.44" stroke-miterlimit="10" cx="62.89" cy="51.091" r="2.088"/>
	<circle fill="none" stroke="#000000" stroke-width="1.44" stroke-miterlimit="10" cx="62.89" cy="29.491" r="2.088"/>
	<circle fill="none" stroke="#000000" stroke-width="1.44" stroke-miterlimit="10" cx="62.89" cy="22.291" r="2.088"/>
	<rect x="2.598" y="70.423" width="5.386" height="4.535"/>
	<path d="M7.983,74.929H2.598v0.029h0.03v-4.535h-0.03v0.03h5.386v-0.03h-0.03v4.535h0.03V74.929z M8.014,74.958v-4.535v-0.03h-0.03
		H2.598h-0.03v0.03v4.535v0.03h0.03h5.386h0.03V74.958z"/>
	<rect x="2.598" y="61.636" width="5.386" height="4.535"/>
	<path d="M7.983,66.141H2.598v0.03h0.03v-4.535h-0.03v0.03h5.386v-0.03h-0.03v4.535h0.03V66.141z M8.014,66.171v-4.535v-0.03h-0.03
		H2.598h-0.03v0.03v4.535v0.03h0.03h5.386h0.03V66.171z"/>
	<rect x="31.397" y="70.423" width="5.386" height="4.535"/>
	<path d="M36.783,74.929h-5.386v0.029h0.03v-4.535h-0.03v0.03h5.386v-0.03h-0.03v4.535h0.03V74.929z M36.813,74.958v-4.535v-0.03
		h-0.03h-5.386h-0.03v0.03v4.535v0.03h0.03h5.386h0.03V74.958z"/>
	<rect x="31.397" y="61.636" width="5.386" height="4.535"/>
	<path d="M36.783,66.141h-5.386v0.03h0.03v-4.535h-0.03v0.03h5.386v-0.03h-0.03v4.535h0.03V66.141z M36.813,66.171v-4.535v-0.03
		h-0.03h-5.386h-0.03v0.03v4.535v0.03h0.03h5.386h0.03V66.171z"/>
	<rect x="16.998" y="12.823" width="5.386" height="4.535"/>
	<path d="M16.998,12.853h5.386v-0.03h-0.03v4.535h0.03v-0.03h-5.386v0.03h0.03v-4.535h-0.03V12.853z M16.968,12.823v4.535v0.03h0.03
		h5.386h0.03v-0.03v-4.535v-0.03h-0.03h-5.386h-0.03V12.823z"/>
	<rect x="16.998" y="21.61" width="5.386" height="4.536"/>
	<path d="M16.998,21.641h5.386v-0.03h-0.03v4.536h0.03v-0.03h-5.386v0.03h0.03V21.61h-0.03V21.641z M16.968,21.61v4.536v0.03h0.03
		h5.386h0.03v-0.03V21.61v-0.03h-0.03h-5.386h-0.03V21.61z"/>
	<rect x="45.797" y="12.823" width="5.386" height="4.535"/>
	<path d="M45.797,12.853h5.386v-0.03h-0.03v4.535h0.03v-0.03h-5.386v0.03h0.03v-4.535h-0.03V12.853z M45.768,12.823v4.535v0.03h0.03
		h5.386h0.029v-0.03v-4.535v-0.03h-0.029h-5.386h-0.03V12.823z"/>
	<rect x="45.797" y="21.61" width="5.386" height="4.536"/>
	<path d="M45.797,21.641h5.386v-0.03h-0.03v4.536h0.03v-0.03h-5.386v0.03h0.03V21.61h-0.03V21.641z M45.768,21.61v4.536v0.03h0.03
		h5.386h0.029v-0.03V21.61v-0.03h-0.029h-5.386h-0.03V21.61z"/>
	
		<line fill="none" stroke="#000000" stroke-width="1.728" stroke-linecap="round" stroke-miterlimit="10" x1="5.29" y1="74.559" x2="5.29" y2="78.304"/>
	
		<line fill="none" stroke="#000000" stroke-width="1.728" stroke-linecap="round" stroke-miterlimit="10" x1="5.29" y1="78.303" x2="34.09" y2="78.303"/>
	
		<line fill="none" stroke="#000000" stroke-width="1.728" stroke-linecap="round" stroke-miterlimit="10" x1="62.89" y1="78.303" x2="62.89" y2="74.858"/>
	
		<line fill="none" stroke="#000000" stroke-width="1.728" stroke-linecap="round" stroke-miterlimit="10" x1="34.09" y1="78.303" x2="62.89" y2="78.303"/>
	
		<line fill="none" stroke="#000000" stroke-width="1.728" stroke-linecap="round" stroke-miterlimit="10" x1="48.49" y1="25.746" x2="48.49" y2="34.631"/>
	
		<line fill="none" stroke="#000000" stroke-width="1.728" stroke-linecap="round" stroke-miterlimit="10" x1="19.69" y1="25.746" x2="19.69" y2="34.631"/>
	
		<line fill="none" stroke="#000000" stroke-width="1.728" stroke-linecap="round" stroke-miterlimit="10" x1="36.383" y1="72.117" x2="60.787" y2="66.017"/>
	
		<line fill="none" stroke="#000000" stroke-width="1.728" stroke-linecap="round" stroke-miterlimit="10" x1="62.89" y1="27.323" x2="62.89" y2="24.459"/>
	
		<line fill="none" stroke="#000000" stroke-width="1.728" stroke-linecap="round" stroke-miterlimit="10" x1="62.89" y1="15.303" x2="62.89" y2="20.123"/>
	
		<line fill="none" stroke="#000000" stroke-width="1.728" stroke-linecap="round" stroke-miterlimit="10" x1="50.783" y1="15.125" x2="62.89" y2="15.304"/>
	
		<line fill="none" stroke="#000000" stroke-width="1.728" stroke-linecap="round" stroke-miterlimit="10" x1="21.983" y1="15.091" x2="46.197" y2="15.091"/>
	
		<line fill="none" stroke="#000000" stroke-width="1.728" stroke-linecap="round" stroke-miterlimit="10" x1="62.89" y1="46.059" x2="62.89" y2="48.923"/>
	
		<line fill="none" stroke="#000000" stroke-width="1.728" stroke-linecap="round" stroke-miterlimit="10" x1="34.439" y1="62.035" x2="35.355" y2="57.141"/>
	
		<line fill="none" stroke="#000000" stroke-width="1.728" stroke-linecap="round" stroke-miterlimit="10" x1="6.555" y1="57.142" x2="5.291" y2="63.903"/>
	
		<line fill="none" stroke="#000000" stroke-width="1.728" stroke-linecap="round" stroke-miterlimit="10" x1="5.29" y1="63.902" x2="31.797" y2="63.902"/>
	
		<line fill="none" stroke="#000000" stroke-width="1.728" stroke-linecap="round" stroke-miterlimit="10" x1="5.64" y1="62.035" x2="6.555" y2="57.141"/>
	
		<line fill="none" stroke="#000000" stroke-width="1.728" stroke-linecap="round" stroke-miterlimit="10" x1="43.49" y1="44.103" x2="60.722" y2="43.914"/>
	
		<line fill="none" stroke="#000000" stroke-width="1.728" stroke-linecap="round" stroke-miterlimit="10" x1="36.92" y1="53.433" x2="43.49" y2="44.104"/>
</g>
<g id="Layer_2" display="none">
	<g display="inline">
		<g>
			<defs>
				<rect id="SVGID_1_" x="-24.49" y="-24.576" width="142" height="130"/>
			</defs>
			<clipPath id="SVGID_2_">
				<use xlink:href="#SVGID_1_"  overflow="visible"/>
			</clipPath>
			
				<rect x="0.086" clip-path="url(#SVGID_2_)" fill="none" stroke="#000000" stroke-width="0.03" stroke-miterlimit="10" width="92.967" height="81.629"/>
			<circle clip-path="url(#SVGID_2_)" fill-rule="evenodd" clip-rule="evenodd" cx="7.02" cy="55.117" r="1.98"/>
			
				<circle clip-path="url(#SVGID_2_)" fill="none" stroke="#000000" stroke-width="2.16" stroke-miterlimit="10" cx="7.02" cy="55.117" r="1.98"/>
			<circle clip-path="url(#SVGID_2_)" fill-rule="evenodd" clip-rule="evenodd" cx="7.02" cy="36.691" r="1.98"/>
			
				<circle clip-path="url(#SVGID_2_)" fill="none" stroke="#000000" stroke-width="2.16" stroke-miterlimit="10" cx="7.02" cy="36.691" r="1.98"/>
			<circle clip-path="url(#SVGID_2_)" fill-rule="evenodd" clip-rule="evenodd" cx="19.776" cy="55.117" r="1.98"/>
			
				<circle clip-path="url(#SVGID_2_)" fill="none" stroke="#000000" stroke-width="2.16" stroke-miterlimit="10" cx="19.776" cy="55.117" r="1.98"/>
			<circle clip-path="url(#SVGID_2_)" fill-rule="evenodd" clip-rule="evenodd" cx="19.776" cy="36.691" r="1.98"/>
			
				<circle clip-path="url(#SVGID_2_)" fill="none" stroke="#000000" stroke-width="2.16" stroke-miterlimit="10" cx="19.776" cy="36.691" r="1.98"/>
			<circle clip-path="url(#SVGID_2_)" fill-rule="evenodd" clip-rule="evenodd" cx="35.82" cy="55.117" r="1.98"/>
			
				<circle clip-path="url(#SVGID_2_)" fill="none" stroke="#000000" stroke-width="2.16" stroke-miterlimit="10" cx="35.82" cy="55.117" r="1.98"/>
			<circle clip-path="url(#SVGID_2_)" fill-rule="evenodd" clip-rule="evenodd" cx="35.82" cy="36.691" r="1.98"/>
			
				<circle clip-path="url(#SVGID_2_)" fill="none" stroke="#000000" stroke-width="2.16" stroke-miterlimit="10" cx="35.82" cy="36.691" r="1.98"/>
			<circle clip-path="url(#SVGID_2_)" fill-rule="evenodd" clip-rule="evenodd" cx="48.576" cy="55.117" r="1.98"/>
			
				<circle clip-path="url(#SVGID_2_)" fill="none" stroke="#000000" stroke-width="2.16" stroke-miterlimit="10" cx="48.576" cy="55.117" r="1.98"/>
			<circle clip-path="url(#SVGID_2_)" fill-rule="evenodd" clip-rule="evenodd" cx="48.576" cy="36.691" r="1.98"/>
			
				<circle clip-path="url(#SVGID_2_)" fill="none" stroke="#000000" stroke-width="2.16" stroke-miterlimit="10" cx="48.576" cy="36.691" r="1.98"/>
			<circle clip-path="url(#SVGID_2_)" fill-rule="evenodd" clip-rule="evenodd" cx="62.976" cy="65.491" r="2.088"/>
			
				<circle clip-path="url(#SVGID_2_)" fill="none" stroke="#000000" stroke-width="2.16" stroke-miterlimit="10" cx="62.976" cy="65.491" r="2.088"/>
			<circle clip-path="url(#SVGID_2_)" fill-rule="evenodd" clip-rule="evenodd" cx="62.976" cy="72.691" r="2.088"/>
			
				<circle clip-path="url(#SVGID_2_)" fill="none" stroke="#000000" stroke-width="2.16" stroke-miterlimit="10" cx="62.976" cy="72.691" r="2.088"/>
			<circle clip-path="url(#SVGID_2_)" fill-rule="evenodd" clip-rule="evenodd" cx="62.976" cy="43.891" r="2.088"/>
			
				<circle clip-path="url(#SVGID_2_)" fill="none" stroke="#000000" stroke-width="2.16" stroke-miterlimit="10" cx="62.976" cy="43.891" r="2.088"/>
			<circle clip-path="url(#SVGID_2_)" fill-rule="evenodd" clip-rule="evenodd" cx="62.976" cy="51.091" r="2.088"/>
			
				<circle clip-path="url(#SVGID_2_)" fill="none" stroke="#000000" stroke-width="2.16" stroke-miterlimit="10" cx="62.976" cy="51.091" r="2.088"/>
			<circle clip-path="url(#SVGID_2_)" fill-rule="evenodd" clip-rule="evenodd" cx="62.976" cy="29.491" r="2.088"/>
			
				<circle clip-path="url(#SVGID_2_)" fill="none" stroke="#000000" stroke-width="2.16" stroke-miterlimit="10" cx="62.976" cy="29.491" r="2.088"/>
			<circle clip-path="url(#SVGID_2_)" fill-rule="evenodd" clip-rule="evenodd" cx="62.976" cy="22.291" r="2.088"/>
			
				<circle clip-path="url(#SVGID_2_)" fill="none" stroke="#000000" stroke-width="2.16" stroke-miterlimit="10" cx="62.976" cy="22.291" r="2.088"/>
			<rect x="2.684" y="70.423" clip-path="url(#SVGID_2_)" width="5.386" height="4.535"/>
			
				<rect x="2.684" y="70.423" clip-path="url(#SVGID_2_)" fill="none" stroke="#000000" stroke-width="0.72" stroke-miterlimit="10" width="5.386" height="4.535"/>
			<rect x="2.684" y="61.636" clip-path="url(#SVGID_2_)" width="5.386" height="4.535"/>
			
				<rect x="2.684" y="61.636" clip-path="url(#SVGID_2_)" fill="none" stroke="#000000" stroke-width="0.72" stroke-miterlimit="10" width="5.386" height="4.535"/>
			<rect x="31.483" y="70.423" clip-path="url(#SVGID_2_)" width="5.386" height="4.535"/>
			
				<rect x="31.483" y="70.423" clip-path="url(#SVGID_2_)" fill="none" stroke="#000000" stroke-width="0.72" stroke-miterlimit="10" width="5.386" height="4.535"/>
			<rect x="31.483" y="61.636" clip-path="url(#SVGID_2_)" width="5.386" height="4.535"/>
			
				<rect x="31.483" y="61.636" clip-path="url(#SVGID_2_)" fill="none" stroke="#000000" stroke-width="0.72" stroke-miterlimit="10" width="5.386" height="4.535"/>
			<rect x="17.083" y="12.823" clip-path="url(#SVGID_2_)" width="5.386" height="4.535"/>
			
				<rect x="17.083" y="12.823" clip-path="url(#SVGID_2_)" fill="none" stroke="#000000" stroke-width="0.72" stroke-miterlimit="10" width="5.386" height="4.535"/>
			<rect x="17.083" y="21.61" clip-path="url(#SVGID_2_)" width="5.386" height="4.536"/>
			
				<rect x="17.083" y="21.61" clip-path="url(#SVGID_2_)" fill="none" stroke="#000000" stroke-width="0.72" stroke-miterlimit="10" width="5.386" height="4.536"/>
			<rect x="45.883" y="12.823" clip-path="url(#SVGID_2_)" width="5.386" height="4.535"/>
			
				<rect x="45.883" y="12.823" clip-path="url(#SVGID_2_)" fill="none" stroke="#000000" stroke-width="0.72" stroke-miterlimit="10" width="5.386" height="4.535"/>
			<rect x="45.883" y="21.61" clip-path="url(#SVGID_2_)" width="5.386" height="4.536"/>
			
				<rect x="45.883" y="21.61" clip-path="url(#SVGID_2_)" fill="none" stroke="#000000" stroke-width="0.72" stroke-miterlimit="10" width="5.386" height="4.536"/>
		</g>
	</g>
</g>
</svg>
