<?xml version="1.0" encoding="utf-8"?>
<!-- Generator: Adobe Illustrator 16.0.0, SVG Export Plug-In . SVG Version: 6.00 Build 0)  -->
<!DOCTYPE svg PUBLIC "-//W3C//DTD SVG 1.1//EN" "http://www.w3.org/Graphics/SVG/1.1/DTD/svg11.dtd">
<svg version="1.1" xmlns="http://www.w3.org/2000/svg" xmlns:xlink="http://www.w3.org/1999/xlink" x="0px" y="0px"
	 width="126.982px" height="70.29px" viewBox="0 0 126.982 70.29" enable-background="new 0 0 126.982 70.29" xml:space="preserve">
<g id="Layer_1">
	<rect fill="none" stroke="#000000" stroke-width="0.03" stroke-miterlimit="10" width="126.982" height="70.29"/>
	<circle fill="none" stroke="#000000" stroke-width="1.1338" stroke-miterlimit="10" cx="57.838" cy="39.174" r="1.701"/>
	
		<rect x="56.137" y="37.474" fill="none" stroke="#000000" stroke-width="1.1338" stroke-miterlimit="10" width="3.402" height="3.401"/>
	<circle fill="none" stroke="#000000" stroke-width="1.1338" stroke-miterlimit="10" cx="57.838" cy="46.262" r="1.701"/>
	<rect x="12.479" y="62.128" width="5.386" height="4.535"/>
	<path d="M17.864,66.633h-5.386v0.03h0.03v-4.535h-0.03v0.029h5.386v-0.029h-0.03v4.535h0.03V66.633z M17.894,66.663v-4.535v-0.03
		h-0.03h-5.386h-0.03v0.03v4.535v0.03h0.03h5.386h0.03V66.663z"/>
	<rect x="12.479" y="53.34" width="5.386" height="4.536"/>
	<path d="M17.864,57.846h-5.386v0.03h0.03V53.34h-0.03v0.03h5.386v-0.03h-0.03v4.536h0.03V57.846z M17.894,57.876V53.34v-0.029
		h-0.03h-5.386h-0.03v0.029v4.536v0.029h0.03h5.386h0.03V57.876z"/>
	<rect x="48.103" y="13.436" width="4.535" height="5.386"/>
	<path d="M48.133,18.821v-5.386h-0.03v0.03h4.535v-0.03h-0.03v5.386h0.03v-0.03h-4.535v0.03H48.133z M48.103,18.852h4.535h0.03
		v-0.03v-5.386v-0.03h-0.03h-4.535h-0.03v0.03v5.386v0.03H48.103z"/>
	<rect x="56.89" y="13.436" width="4.536" height="5.386"/>
	<path d="M56.92,18.821v-5.386h-0.03v0.03h4.536v-0.03h-0.03v5.386h0.03v-0.03H56.89v0.03H56.92z M56.89,18.852h4.536h0.03v-0.03
		v-5.386v-0.03h-0.03H56.89h-0.03v0.03v5.386v0.03H56.89z"/>
	<rect x="77.012" y="62.394" width="5.386" height="4.536"/>
	<path d="M82.397,66.899h-5.386v0.03h0.03v-4.536h-0.03v0.03h5.386v-0.03h-0.03v4.536h0.03V66.899z M82.428,66.93v-4.536v-0.029
		h-0.03h-5.386h-0.03v0.029v4.536v0.029h0.03h5.386h0.03V66.93z"/>
	<rect x="77.012" y="53.606" width="5.386" height="4.535"/>
	<path d="M82.397,58.112h-5.386v0.029h0.03v-4.535h-0.03v0.03h5.386v-0.03h-0.03v4.535h0.03V58.112z M82.428,58.142v-4.535v-0.03
		h-0.03h-5.386h-0.03v0.03v4.535v0.03h0.03h5.386h0.03V58.142z"/>
	<rect x="55.145" y="62.66" width="5.386" height="4.536"/>
	<path d="M60.531,67.166h-5.386v0.03h0.03V62.66h-0.03v0.03h5.386v-0.03h-0.03v4.536h0.03V67.166z M60.561,67.196V62.66v-0.029
		h-0.03h-5.386h-0.03v0.029v4.536v0.029h0.03h5.386h0.03V67.196z"/>
	<rect x="55.145" y="53.873" width="5.386" height="4.535"/>
	<path d="M60.531,58.378h-5.386v0.03h0.03v-4.535h-0.03v0.03h5.386v-0.03h-0.03v4.535h0.03V58.378z M60.561,58.408v-4.535v-0.03
		h-0.03h-5.386h-0.03v0.03v4.535v0.03h0.03h5.386h0.03V58.408z"/>
	<rect x="33.545" y="62.394" width="5.386" height="4.536"/>
	<path d="M38.931,66.899h-5.386v0.03h0.03v-4.536h-0.03v0.03h5.386v-0.03h-0.03v4.536h0.03V66.899z M38.961,66.93v-4.536v-0.029
		h-0.03h-5.386h-0.03v0.029v4.536v0.029h0.03h5.386h0.03V66.93z"/>
	<rect x="33.545" y="53.606" width="5.386" height="4.535"/>
	<path d="M38.931,58.112h-5.386v0.029h0.03v-4.535h-0.03v0.03h5.386v-0.03h-0.03v4.535h0.03V58.112z M38.961,58.142v-4.535v-0.03
		h-0.03h-5.386h-0.03v0.03v4.535v0.03h0.03h5.386h0.03V58.142z"/>
	<rect x="69.703" y="13.436" width="4.535" height="5.386"/>
	<path d="M69.733,18.821v-5.386h-0.03v0.03h4.535v-0.03h-0.029v5.386h0.029v-0.03h-4.535v0.03H69.733z M69.703,18.852h4.535h0.03
		v-0.03v-5.386v-0.03h-0.03h-4.535h-0.03v0.03v5.386v0.03H69.703z"/>
	<rect x="78.49" y="13.436" width="4.536" height="5.386"/>
	<path d="M78.521,18.821v-5.386h-0.03v0.03h4.536v-0.03h-0.03v5.386h0.03v-0.03H78.49v0.03H78.521z M78.49,18.852h4.536h0.029v-0.03
		v-5.386v-0.03h-0.029H78.49h-0.029v0.03v5.386v0.03H78.49z"/>
	<circle fill="none" stroke="#000000" stroke-width="1.1338" stroke-miterlimit="10" cx="14.638" cy="39.174" r="1.701"/>
	
		<rect x="12.937" y="37.474" fill="none" stroke="#000000" stroke-width="1.1338" stroke-miterlimit="10" width="3.402" height="3.401"/>
	<circle fill="none" stroke="#000000" stroke-width="1.1338" stroke-miterlimit="10" cx="14.638" cy="46.262" r="1.701"/>
	<circle fill="none" stroke="#000000" stroke-width="1.1338" stroke-miterlimit="10" cx="79.438" cy="39.174" r="1.701"/>
	
		<rect x="77.737" y="37.474" fill="none" stroke="#000000" stroke-width="1.1338" stroke-miterlimit="10" width="3.401" height="3.401"/>
	<circle fill="none" stroke="#000000" stroke-width="1.1338" stroke-miterlimit="10" cx="79.438" cy="46.262" r="1.701"/>
	<circle fill="none" stroke="#000000" stroke-width="1.1338" stroke-miterlimit="10" cx="36.238" cy="39.174" r="1.701"/>
	
		<rect x="34.537" y="37.474" fill="none" stroke="#000000" stroke-width="1.1338" stroke-miterlimit="10" width="3.402" height="3.401"/>
	<circle fill="none" stroke="#000000" stroke-width="1.1338" stroke-miterlimit="10" cx="36.238" cy="46.262" r="1.701"/>
	<circle fill="none" stroke="#000000" stroke-width="1.44" stroke-miterlimit="10" cx="101.038" cy="30.262" r="2.088"/>
	<circle fill="none" stroke="#000000" stroke-width="1.44" stroke-miterlimit="10" cx="101.038" cy="37.462" r="2.088"/>
	<circle fill="none" stroke="#000000" stroke-width="1.44" stroke-miterlimit="10" cx="100.771" cy="16.128" r="2.088"/>
	<circle fill="none" stroke="#000000" stroke-width="1.44" stroke-miterlimit="10" cx="93.571" cy="16.128" r="2.088"/>
	<circle fill="none" stroke="#000000" stroke-width="1.44" stroke-miterlimit="10" cx="101.038" cy="64.661" r="2.088"/>
	<circle fill="none" stroke="#000000" stroke-width="1.44" stroke-miterlimit="10" cx="93.838" cy="64.661" r="2.088"/>
	<circle fill="none" stroke="#000000" stroke-width="1.44" stroke-miterlimit="10" cx="101.038" cy="47.062" r="2.088"/>
	<circle fill="none" stroke="#000000" stroke-width="1.44" stroke-miterlimit="10" cx="101.038" cy="54.262" r="2.088"/>
	
		<line fill="none" stroke="#000000" stroke-width="1.728" stroke-linecap="round" stroke-miterlimit="10" x1="36.552" y1="37.267" x2="36.627" y2="36.81"/>
	
		<line fill="none" stroke="#000000" stroke-width="1.728" stroke-linecap="round" stroke-miterlimit="10" x1="36.627" y1="36.81" x2="36.771" y2="28.928"/>
	
		<line fill="none" stroke="#000000" stroke-width="1.728" stroke-linecap="round" stroke-miterlimit="10" x1="36.771" y1="28.928" x2="48.943" y2="27.465"/>
	
		<line fill="none" stroke="#000000" stroke-width="1.728" stroke-linecap="round" stroke-miterlimit="10" x1="78.965" y1="27.465" x2="87.051" y2="27.81"/>
	
		<line fill="none" stroke="#000000" stroke-width="1.728" stroke-linecap="round" stroke-miterlimit="10" x1="48.943" y1="27.465" x2="78.965" y2="27.465"/>
	
		<line fill="none" stroke="#000000" stroke-width="1.728" stroke-linecap="round" stroke-miterlimit="10" x1="87.051" y1="27.81" x2="99.253" y2="36.23"/>
	
		<line fill="none" stroke="#000000" stroke-width="1.728" stroke-linecap="round" stroke-miterlimit="10" x1="101.32" y1="22.81" x2="101.12" y2="28.095"/>
	
		<line fill="none" stroke="#000000" stroke-width="1.728" stroke-linecap="round" stroke-miterlimit="10" x1="14.638" y1="23.328" x2="101.32" y2="22.81"/>
	
		<line fill="none" stroke="#000000" stroke-width="1.728" stroke-linecap="round" stroke-miterlimit="10" x1="14.638" y1="37.24" x2="14.638" y2="23.328"/>
	
		<line fill="none" stroke="#000000" stroke-width="1.728" stroke-linecap="round" stroke-miterlimit="10" x1="61.026" y1="16.128" x2="70.103" y2="16.128"/>
	
		<line fill="none" stroke="#000000" stroke-width="1.728" stroke-linecap="round" stroke-miterlimit="10" x1="36.237" y1="54.007" x2="36.238" y2="48.195"/>
	
		<line fill="none" stroke="#000000" stroke-width="1.728" stroke-linecap="round" stroke-miterlimit="10" x1="15.064" y1="53.74" x2="14.748" y2="48.192"/>
	
		<line fill="none" stroke="#000000" stroke-width="1.728" stroke-linecap="round" stroke-miterlimit="10" x1="79.652" y1="54.007" x2="79.491" y2="48.195"/>
	
		<line fill="none" stroke="#000000" stroke-width="1.728" stroke-linecap="round" stroke-miterlimit="10" x1="57.837" y1="54.272" x2="57.837" y2="48.195"/>
	
		<line fill="none" stroke="#000000" stroke-width="1.728" stroke-linecap="round" stroke-miterlimit="10" x1="82.626" y1="16.128" x2="91.403" y2="16.128"/>
	
		<line fill="none" stroke="#000000" stroke-width="1.728" stroke-linecap="round" stroke-miterlimit="10" x1="81.022" y1="40.281" x2="99.26" y2="53.021"/>
	
		<line fill="none" stroke="#000000" stroke-width="1.728" stroke-linecap="round" stroke-miterlimit="10" x1="59.64" y1="38.473" x2="73.943" y2="32.904"/>
	
		<line fill="none" stroke="#000000" stroke-width="1.728" stroke-linecap="round" stroke-miterlimit="10" x1="73.944" y1="32.904" x2="84.744" y2="32.904"/>
	
		<line fill="none" stroke="#000000" stroke-width="1.728" stroke-linecap="round" stroke-miterlimit="10" x1="84.744" y1="32.904" x2="99.4" y2="45.64"/>
	
		<line fill="none" stroke="#000000" stroke-width="1.728" stroke-linecap="round" stroke-miterlimit="10" x1="81.997" y1="64.661" x2="91.669" y2="64.661"/>
	
		<line fill="none" stroke="#000000" stroke-width="1.728" stroke-linecap="round" stroke-miterlimit="10" x1="60.131" y1="64.9" x2="77.411" y2="64.689"/>
	
		<line fill="none" stroke="#000000" stroke-width="1.728" stroke-linecap="round" stroke-miterlimit="10" x1="38.531" y1="64.689" x2="55.545" y2="64.899"/>
	
		<line fill="none" stroke="#000000" stroke-width="1.728" stroke-linecap="round" stroke-miterlimit="10" x1="17.464" y1="64.425" x2="33.945" y2="64.633"/>
	
		<line fill="none" stroke="#000000" stroke-width="1.728" stroke-linecap="round" stroke-miterlimit="10" x1="48.503" y1="16.204" x2="9.144" y2="17.784"/>
	
		<line fill="none" stroke="#000000" stroke-width="1.728" stroke-linecap="round" stroke-miterlimit="10" x1="9.144" y1="17.784" x2="9.144" y2="60.984"/>
	
		<line fill="none" stroke="#000000" stroke-width="1.728" stroke-linecap="round" stroke-miterlimit="10" x1="9.144" y1="60.984" x2="12.878" y2="63.098"/>
</g>
<g id="Layer_2" display="none">
	<g display="inline">
		<g>
			<defs>
				<rect id="SVGID_1_" x="-24.509" y="-24.576" width="176" height="119"/>
			</defs>
			<clipPath id="SVGID_2_">
				<use xlink:href="#SVGID_1_"  overflow="visible"/>
			</clipPath>
			
				<rect x="0.067" clip-path="url(#SVGID_2_)" fill="none" stroke="#000000" stroke-width="0.03" stroke-miterlimit="10" width="126.982" height="70.29"/>
			<circle clip-path="url(#SVGID_2_)" fill-rule="evenodd" clip-rule="evenodd" cx="57.906" cy="39.174" r="1.701"/>
			
				<circle clip-path="url(#SVGID_2_)" fill="none" stroke="#000000" stroke-width="1.8538" stroke-miterlimit="10" cx="57.906" cy="39.174" r="1.701"/>
			<rect x="56.205" y="37.474" clip-path="url(#SVGID_2_)" width="3.402" height="3.401"/>
			
				<rect x="56.205" y="37.474" clip-path="url(#SVGID_2_)" fill="none" stroke="#000000" stroke-width="1.8538" stroke-miterlimit="10" width="3.402" height="3.401"/>
			<circle clip-path="url(#SVGID_2_)" fill-rule="evenodd" clip-rule="evenodd" cx="57.906" cy="46.262" r="1.701"/>
			
				<circle clip-path="url(#SVGID_2_)" fill="none" stroke="#000000" stroke-width="1.8538" stroke-miterlimit="10" cx="57.906" cy="46.262" r="1.701"/>
			<rect x="12.546" y="62.128" clip-path="url(#SVGID_2_)" width="5.386" height="4.535"/>
			
				<rect x="12.546" y="62.128" clip-path="url(#SVGID_2_)" fill="none" stroke="#000000" stroke-width="0.72" stroke-miterlimit="10" width="5.386" height="4.535"/>
			<rect x="12.546" y="53.34" clip-path="url(#SVGID_2_)" width="5.386" height="4.536"/>
			
				<rect x="12.546" y="53.34" clip-path="url(#SVGID_2_)" fill="none" stroke="#000000" stroke-width="0.72" stroke-miterlimit="10" width="5.386" height="4.536"/>
			<rect x="48.17" y="13.436" clip-path="url(#SVGID_2_)" width="4.535" height="5.386"/>
			
				<rect x="48.17" y="13.436" clip-path="url(#SVGID_2_)" fill="none" stroke="#000000" stroke-width="0.72" stroke-miterlimit="10" width="4.535" height="5.386"/>
			<rect x="56.958" y="13.436" clip-path="url(#SVGID_2_)" width="4.536" height="5.386"/>
			
				<rect x="56.958" y="13.436" clip-path="url(#SVGID_2_)" fill="none" stroke="#000000" stroke-width="0.72" stroke-miterlimit="10" width="4.536" height="5.386"/>
			<rect x="77.079" y="62.394" clip-path="url(#SVGID_2_)" width="5.386" height="4.536"/>
			
				<rect x="77.079" y="62.394" clip-path="url(#SVGID_2_)" fill="none" stroke="#000000" stroke-width="0.72" stroke-miterlimit="10" width="5.386" height="4.536"/>
			<rect x="77.079" y="53.606" clip-path="url(#SVGID_2_)" width="5.386" height="4.535"/>
			
				<rect x="77.079" y="53.606" clip-path="url(#SVGID_2_)" fill="none" stroke="#000000" stroke-width="0.72" stroke-miterlimit="10" width="5.386" height="4.535"/>
			<rect x="55.212" y="62.66" clip-path="url(#SVGID_2_)" width="5.386" height="4.536"/>
			
				<rect x="55.212" y="62.66" clip-path="url(#SVGID_2_)" fill="none" stroke="#000000" stroke-width="0.72" stroke-miterlimit="10" width="5.386" height="4.536"/>
			<rect x="55.212" y="53.873" clip-path="url(#SVGID_2_)" width="5.386" height="4.535"/>
			
				<rect x="55.212" y="53.873" clip-path="url(#SVGID_2_)" fill="none" stroke="#000000" stroke-width="0.72" stroke-miterlimit="10" width="5.386" height="4.535"/>
			<rect x="33.612" y="62.394" clip-path="url(#SVGID_2_)" width="5.386" height="4.536"/>
			
				<rect x="33.612" y="62.394" clip-path="url(#SVGID_2_)" fill="none" stroke="#000000" stroke-width="0.72" stroke-miterlimit="10" width="5.386" height="4.536"/>
			<rect x="33.612" y="53.606" clip-path="url(#SVGID_2_)" width="5.386" height="4.535"/>
			
				<rect x="33.612" y="53.606" clip-path="url(#SVGID_2_)" fill="none" stroke="#000000" stroke-width="0.72" stroke-miterlimit="10" width="5.386" height="4.535"/>
			<rect x="69.771" y="13.436" clip-path="url(#SVGID_2_)" width="4.535" height="5.386"/>
			
				<rect x="69.771" y="13.436" clip-path="url(#SVGID_2_)" fill="none" stroke="#000000" stroke-width="0.72" stroke-miterlimit="10" width="4.535" height="5.386"/>
			<rect x="78.558" y="13.436" clip-path="url(#SVGID_2_)" width="4.536" height="5.386"/>
			
				<rect x="78.558" y="13.436" clip-path="url(#SVGID_2_)" fill="none" stroke="#000000" stroke-width="0.72" stroke-miterlimit="10" width="4.536" height="5.386"/>
			<circle clip-path="url(#SVGID_2_)" fill-rule="evenodd" clip-rule="evenodd" cx="14.705" cy="39.174" r="1.701"/>
			
				<circle clip-path="url(#SVGID_2_)" fill="none" stroke="#000000" stroke-width="1.8538" stroke-miterlimit="10" cx="14.705" cy="39.174" r="1.701"/>
			<rect x="13.004" y="37.474" clip-path="url(#SVGID_2_)" width="3.402" height="3.401"/>
			
				<rect x="13.004" y="37.474" clip-path="url(#SVGID_2_)" fill="none" stroke="#000000" stroke-width="1.8538" stroke-miterlimit="10" width="3.402" height="3.401"/>
			<circle clip-path="url(#SVGID_2_)" fill-rule="evenodd" clip-rule="evenodd" cx="14.705" cy="46.262" r="1.701"/>
			
				<circle clip-path="url(#SVGID_2_)" fill="none" stroke="#000000" stroke-width="1.8538" stroke-miterlimit="10" cx="14.705" cy="46.262" r="1.701"/>
			<circle clip-path="url(#SVGID_2_)" fill-rule="evenodd" clip-rule="evenodd" cx="79.505" cy="39.174" r="1.701"/>
			
				<circle clip-path="url(#SVGID_2_)" fill="none" stroke="#000000" stroke-width="1.8538" stroke-miterlimit="10" cx="79.505" cy="39.174" r="1.701"/>
			<rect x="77.805" y="37.474" clip-path="url(#SVGID_2_)" width="3.401" height="3.401"/>
			
				<rect x="77.805" y="37.474" clip-path="url(#SVGID_2_)" fill="none" stroke="#000000" stroke-width="1.8538" stroke-miterlimit="10" width="3.401" height="3.401"/>
			<circle clip-path="url(#SVGID_2_)" fill-rule="evenodd" clip-rule="evenodd" cx="79.505" cy="46.262" r="1.701"/>
			
				<circle clip-path="url(#SVGID_2_)" fill="none" stroke="#000000" stroke-width="1.8538" stroke-miterlimit="10" cx="79.505" cy="46.262" r="1.701"/>
			<circle clip-path="url(#SVGID_2_)" fill-rule="evenodd" clip-rule="evenodd" cx="36.305" cy="39.174" r="1.701"/>
			
				<circle clip-path="url(#SVGID_2_)" fill="none" stroke="#000000" stroke-width="1.8538" stroke-miterlimit="10" cx="36.305" cy="39.174" r="1.701"/>
			<rect x="34.604" y="37.474" clip-path="url(#SVGID_2_)" width="3.402" height="3.401"/>
			
				<rect x="34.604" y="37.474" clip-path="url(#SVGID_2_)" fill="none" stroke="#000000" stroke-width="1.8538" stroke-miterlimit="10" width="3.402" height="3.401"/>
			<circle clip-path="url(#SVGID_2_)" fill-rule="evenodd" clip-rule="evenodd" cx="36.305" cy="46.262" r="1.701"/>
			
				<circle clip-path="url(#SVGID_2_)" fill="none" stroke="#000000" stroke-width="1.8538" stroke-miterlimit="10" cx="36.305" cy="46.262" r="1.701"/>
			<circle clip-path="url(#SVGID_2_)" fill-rule="evenodd" clip-rule="evenodd" cx="101.105" cy="30.262" r="2.088"/>
			
				<circle clip-path="url(#SVGID_2_)" fill="none" stroke="#000000" stroke-width="2.16" stroke-miterlimit="10" cx="101.105" cy="30.262" r="2.088"/>
			<circle clip-path="url(#SVGID_2_)" fill-rule="evenodd" clip-rule="evenodd" cx="101.105" cy="37.462" r="2.088"/>
			
				<circle clip-path="url(#SVGID_2_)" fill="none" stroke="#000000" stroke-width="2.16" stroke-miterlimit="10" cx="101.105" cy="37.462" r="2.088"/>
			<circle clip-path="url(#SVGID_2_)" fill-rule="evenodd" clip-rule="evenodd" cx="100.839" cy="16.128" r="2.088"/>
			
				<circle clip-path="url(#SVGID_2_)" fill="none" stroke="#000000" stroke-width="2.16" stroke-miterlimit="10" cx="100.839" cy="16.128" r="2.088"/>
			<circle clip-path="url(#SVGID_2_)" fill-rule="evenodd" clip-rule="evenodd" cx="93.639" cy="16.128" r="2.088"/>
			
				<circle clip-path="url(#SVGID_2_)" fill="none" stroke="#000000" stroke-width="2.16" stroke-miterlimit="10" cx="93.639" cy="16.128" r="2.088"/>
			<circle clip-path="url(#SVGID_2_)" fill-rule="evenodd" clip-rule="evenodd" cx="101.105" cy="64.661" r="2.088"/>
			
				<circle clip-path="url(#SVGID_2_)" fill="none" stroke="#000000" stroke-width="2.16" stroke-miterlimit="10" cx="101.105" cy="64.661" r="2.088"/>
			<circle clip-path="url(#SVGID_2_)" fill-rule="evenodd" clip-rule="evenodd" cx="93.905" cy="64.661" r="2.088"/>
			
				<circle clip-path="url(#SVGID_2_)" fill="none" stroke="#000000" stroke-width="2.16" stroke-miterlimit="10" cx="93.905" cy="64.661" r="2.088"/>
			<circle clip-path="url(#SVGID_2_)" fill-rule="evenodd" clip-rule="evenodd" cx="101.105" cy="47.062" r="2.088"/>
			
				<circle clip-path="url(#SVGID_2_)" fill="none" stroke="#000000" stroke-width="2.16" stroke-miterlimit="10" cx="101.105" cy="47.062" r="2.088"/>
			<circle clip-path="url(#SVGID_2_)" fill-rule="evenodd" clip-rule="evenodd" cx="101.105" cy="54.262" r="2.088"/>
			
				<circle clip-path="url(#SVGID_2_)" fill="none" stroke="#000000" stroke-width="2.16" stroke-miterlimit="10" cx="101.105" cy="54.262" r="2.088"/>
		</g>
	</g>
</g>
</svg>
