<?xml version="1.0" encoding="utf-8"?>
<!-- Generator: Adobe Illustrator 16.0.0, SVG Export Plug-In . SVG Version: 6.00 Build 0)  -->
<!DOCTYPE svg PUBLIC "-//W3C//DTD SVG 1.1//EN" "http://www.w3.org/Graphics/SVG/1.1/DTD/svg11.dtd">
<svg version="1.1" xmlns="http://www.w3.org/2000/svg" xmlns:xlink="http://www.w3.org/1999/xlink" x="0px" y="0px"
	 width="75.959px" height="47.613px" viewBox="0 0 75.959 47.613" enable-background="new 0 0 75.959 47.613" xml:space="preserve">
<g id="Layer_1">
	<rect fill="none" stroke="#000000" stroke-width="0.03" stroke-miterlimit="10" width="75.959" height="47.613"/>
	<circle fill="none" stroke="#000000" stroke-width="1.1338" stroke-miterlimit="10" cx="33.823" cy="11.137" r="1.701"/>
	
		<rect x="32.123" y="9.436" fill="none" stroke="#000000" stroke-width="1.1338" stroke-miterlimit="10" width="3.402" height="3.401"/>
	<circle fill="none" stroke="#000000" stroke-width="1.1338" stroke-miterlimit="10" cx="33.823" cy="18.224" r="1.701"/>
	<circle fill="none" stroke="#000000" stroke-width="1.1338" stroke-miterlimit="10" cx="12.223" cy="11.137" r="1.701"/>
	
		<rect x="10.522" y="9.436" fill="none" stroke="#000000" stroke-width="1.1338" stroke-miterlimit="10" width="3.402" height="3.401"/>
	<circle fill="none" stroke="#000000" stroke-width="1.1338" stroke-miterlimit="10" cx="12.223" cy="18.224" r="1.701"/>
	<circle fill="none" stroke="#000000" stroke-width="1.44" stroke-miterlimit="10" cx="60.544" cy="14.064" r="2.088"/>
	<circle fill="none" stroke="#000000" stroke-width="1.44" stroke-miterlimit="10" cx="60.544" cy="6.864" r="2.088"/>
	<rect x="31.131" y="30.356" width="5.386" height="4.535"/>
	<path d="M36.517,34.861h-5.386v0.03h0.03v-4.535h-0.03v0.029h5.386v-0.029h-0.03v4.535h0.03V34.861z M36.547,34.892v-4.535v-0.03
		h-0.03h-5.386h-0.03v0.03v4.535v0.03h0.03h5.386h0.03V34.892z"/>
	<rect x="31.131" y="21.568" width="5.386" height="4.536"/>
	<path d="M36.517,26.074h-5.386v0.03h0.03v-4.536h-0.03v0.03h5.386v-0.03h-0.03v4.536h0.03V26.074z M36.547,26.104v-4.536v-0.03
		h-0.03h-5.386h-0.03v0.03v4.536v0.029h0.03h5.386h0.03V26.104z"/>
	<rect x="9.531" y="30.356" width="5.386" height="4.535"/>
	<path d="M14.917,34.861H9.531v0.03h0.03v-4.535h-0.03v0.029h5.386v-0.029h-0.03v4.535h0.03V34.861z M14.947,34.892v-4.535v-0.03
		h-0.03H9.531h-0.03v0.03v4.535v0.03h0.03h5.386h0.03V34.892z"/>
	<rect x="9.531" y="21.568" width="5.386" height="4.536"/>
	<path d="M14.917,26.074H9.531v0.03h0.03v-4.536h-0.03v0.03h5.386v-0.03h-0.03v4.536h0.03V26.074z M14.947,26.104v-4.536v-0.03
		h-0.03H9.531h-0.03v0.03v4.536v0.029h0.03h5.386h0.03V26.104z"/>
	<circle fill="none" stroke="#000000" stroke-width="1.44" stroke-miterlimit="10" cx="55.424" cy="32.624" r="2.088"/>
	<circle fill="none" stroke="#000000" stroke-width="1.44" stroke-miterlimit="10" cx="55.424" cy="25.424" r="2.088"/>
	
		<line fill="none" stroke="#000000" stroke-width="1.728" stroke-linecap="round" stroke-miterlimit="10" x1="12.224" y1="21.969" x2="12.223" y2="20.158"/>
	
		<line fill="none" stroke="#000000" stroke-width="1.728" stroke-linecap="round" stroke-miterlimit="10" x1="33.824" y1="21.969" x2="33.823" y2="20.158"/>
	
		<line fill="none" stroke="#000000" stroke-width="1.728" stroke-linecap="round" stroke-miterlimit="10" x1="36.117" y1="32.624" x2="53.256" y2="32.624"/>
	
		<line fill="none" stroke="#000000" stroke-width="1.728" stroke-linecap="round" stroke-miterlimit="10" x1="14.517" y1="32.624" x2="31.531" y2="32.624"/>
	
		<line fill="none" stroke="#000000" stroke-width="1.728" stroke-linecap="round" stroke-miterlimit="10" x1="13.99" y1="10.351" x2="26.423" y2="4.824"/>
	
		<line fill="none" stroke="#000000" stroke-width="1.728" stroke-linecap="round" stroke-miterlimit="10" x1="26.424" y1="4.824" x2="58.38" y2="6.734"/>
	
		<line fill="none" stroke="#000000" stroke-width="1.728" stroke-linecap="round" stroke-miterlimit="10" x1="35.746" y1="11.347" x2="58.389" y2="13.828"/>
</g>
<g id="Layer_2">
	<g>
		<g>
			<defs>
				<rect id="SVGID_1_" x="-24.576" y="-24.576" width="125" height="96"/>
			</defs>
			<clipPath id="SVGID_2_">
				<use xlink:href="#SVGID_1_"  overflow="visible"/>
			</clipPath>
			
				<rect clip-path="url(#SVGID_2_)" fill="none" stroke="#000000" stroke-width="0.03" stroke-miterlimit="10" width="75.959" height="47.613"/>
			<circle clip-path="url(#SVGID_2_)" fill-rule="evenodd" clip-rule="evenodd" cx="33.823" cy="11.137" r="1.701"/>
			
				<circle clip-path="url(#SVGID_2_)" fill="none" stroke="#000000" stroke-width="1.8538" stroke-miterlimit="10" cx="33.823" cy="11.137" r="1.701"/>
			<rect x="32.123" y="9.436" clip-path="url(#SVGID_2_)" width="3.402" height="3.401"/>
			
				<rect x="32.123" y="9.436" clip-path="url(#SVGID_2_)" fill="none" stroke="#000000" stroke-width="1.8538" stroke-miterlimit="10" width="3.402" height="3.401"/>
			<circle clip-path="url(#SVGID_2_)" fill-rule="evenodd" clip-rule="evenodd" cx="33.823" cy="18.224" r="1.701"/>
			
				<circle clip-path="url(#SVGID_2_)" fill="none" stroke="#000000" stroke-width="1.8538" stroke-miterlimit="10" cx="33.823" cy="18.224" r="1.701"/>
			<circle clip-path="url(#SVGID_2_)" fill-rule="evenodd" clip-rule="evenodd" cx="12.223" cy="11.137" r="1.701"/>
			
				<circle clip-path="url(#SVGID_2_)" fill="none" stroke="#000000" stroke-width="1.8538" stroke-miterlimit="10" cx="12.223" cy="11.137" r="1.701"/>
			<rect x="10.522" y="9.436" clip-path="url(#SVGID_2_)" width="3.402" height="3.401"/>
			
				<rect x="10.522" y="9.436" clip-path="url(#SVGID_2_)" fill="none" stroke="#000000" stroke-width="1.8538" stroke-miterlimit="10" width="3.402" height="3.401"/>
			<circle clip-path="url(#SVGID_2_)" fill-rule="evenodd" clip-rule="evenodd" cx="12.223" cy="18.224" r="1.701"/>
			
				<circle clip-path="url(#SVGID_2_)" fill="none" stroke="#000000" stroke-width="1.8538" stroke-miterlimit="10" cx="12.223" cy="18.224" r="1.701"/>
			<circle clip-path="url(#SVGID_2_)" fill-rule="evenodd" clip-rule="evenodd" cx="60.544" cy="14.064" r="2.088"/>
			
				<circle clip-path="url(#SVGID_2_)" fill="none" stroke="#000000" stroke-width="2.16" stroke-miterlimit="10" cx="60.544" cy="14.064" r="2.088"/>
			<circle clip-path="url(#SVGID_2_)" fill-rule="evenodd" clip-rule="evenodd" cx="60.544" cy="6.864" r="2.088"/>
			
				<circle clip-path="url(#SVGID_2_)" fill="none" stroke="#000000" stroke-width="2.16" stroke-miterlimit="10" cx="60.544" cy="6.864" r="2.088"/>
			<rect x="31.131" y="30.356" clip-path="url(#SVGID_2_)" width="5.386" height="4.535"/>
			
				<rect x="31.131" y="30.356" clip-path="url(#SVGID_2_)" fill="none" stroke="#000000" stroke-width="0.72" stroke-miterlimit="10" width="5.386" height="4.535"/>
			<rect x="31.131" y="21.568" clip-path="url(#SVGID_2_)" width="5.386" height="4.536"/>
			
				<rect x="31.131" y="21.568" clip-path="url(#SVGID_2_)" fill="none" stroke="#000000" stroke-width="0.72" stroke-miterlimit="10" width="5.386" height="4.536"/>
			<rect x="9.531" y="30.356" clip-path="url(#SVGID_2_)" width="5.386" height="4.535"/>
			
				<rect x="9.531" y="30.356" clip-path="url(#SVGID_2_)" fill="none" stroke="#000000" stroke-width="0.72" stroke-miterlimit="10" width="5.386" height="4.535"/>
			<rect x="9.531" y="21.568" clip-path="url(#SVGID_2_)" width="5.386" height="4.536"/>
			
				<rect x="9.531" y="21.568" clip-path="url(#SVGID_2_)" fill="none" stroke="#000000" stroke-width="0.72" stroke-miterlimit="10" width="5.386" height="4.536"/>
			<circle clip-path="url(#SVGID_2_)" fill-rule="evenodd" clip-rule="evenodd" cx="55.424" cy="32.624" r="2.088"/>
			
				<circle clip-path="url(#SVGID_2_)" fill="none" stroke="#000000" stroke-width="2.16" stroke-miterlimit="10" cx="55.424" cy="32.624" r="2.088"/>
			<circle clip-path="url(#SVGID_2_)" fill-rule="evenodd" clip-rule="evenodd" cx="55.424" cy="25.424" r="2.088"/>
			
				<circle clip-path="url(#SVGID_2_)" fill="none" stroke="#000000" stroke-width="2.16" stroke-miterlimit="10" cx="55.424" cy="25.424" r="2.088"/>
		</g>
	</g>
</g>
</svg>
