<?xml version="1.0" encoding="utf-8"?>
<!-- Generator: Adobe Illustrator 16.0.0, SVG Export Plug-In . SVG Version: 6.00 Build 0)  -->
<!DOCTYPE svg PUBLIC "-//W3C//DTD SVG 1.1//EN" "http://www.w3.org/Graphics/SVG/1.1/DTD/svg11.dtd">
<svg version="1.1" id="Layer_1" xmlns="http://www.w3.org/2000/svg" xmlns:xlink="http://www.w3.org/1999/xlink" x="0px" y="0px"
	 width="75.959px" height="47.613px" viewBox="0 0 75.959 47.613" enable-background="new 0 0 75.959 47.613" xml:space="preserve">
<rect fill="none" stroke="#000000" stroke-width="0.03" stroke-miterlimit="10" width="75.959" height="47.613"/>
<circle fill="none" stroke="#000000" stroke-width="1.1338" stroke-miterlimit="10" cx="33.823" cy="11.137" r="1.701"/>
<rect x="32.123" y="9.436" fill="none" stroke="#000000" stroke-width="1.1338" stroke-miterlimit="10" width="3.402" height="3.401"/>
<circle fill="none" stroke="#000000" stroke-width="1.1338" stroke-miterlimit="10" cx="33.823" cy="18.224" r="1.701"/>
<circle fill="none" stroke="#000000" stroke-width="1.1338" stroke-miterlimit="10" cx="12.223" cy="11.137" r="1.701"/>
<rect x="10.522" y="9.436" fill="none" stroke="#000000" stroke-width="1.1338" stroke-miterlimit="10" width="3.402" height="3.401"/>
<circle fill="none" stroke="#000000" stroke-width="1.1338" stroke-miterlimit="10" cx="12.223" cy="18.224" r="1.701"/>
<circle fill="none" stroke="#000000" stroke-width="1.44" stroke-miterlimit="10" cx="60.544" cy="14.064" r="2.088"/>
<circle fill="none" stroke="#000000" stroke-width="1.44" stroke-miterlimit="10" cx="60.544" cy="6.864" r="2.088"/>
<circle fill="none" stroke="#000000" stroke-width="1.44" stroke-miterlimit="10" cx="55.424" cy="32.624" r="2.088"/>
<circle fill="none" stroke="#000000" stroke-width="1.44" stroke-miterlimit="10" cx="55.424" cy="25.424" r="2.088"/>
<path d="M71.211,44.249c0,0.058,0.014,0.113,0.043,0.166c0.028,0.053,0.059,0.094,0.09,0.122c0.031,0.029,0.075,0.066,0.133,0.112
	c0.058,0.045,0.097,0.075,0.115,0.09c0.072,0.058,0.149,0.086,0.23,0.086h0.9c0.067,0,0.127-0.015,0.18-0.043
	c0.053-0.029,0.115-0.079,0.188-0.151s0.112-0.11,0.122-0.115c0.087-0.067,0.13-0.156,0.13-0.267v-1.482
	c0-0.125-0.072-0.252-0.216-0.382c-0.145-0.13-0.278-0.194-0.403-0.194h-0.9c-0.067,0-0.127,0.014-0.18,0.043
	c-0.053,0.028-0.115,0.079-0.188,0.151c-0.071,0.072-0.112,0.11-0.122,0.115c-0.082,0.067-0.122,0.156-0.122,0.267V44.249z
	 M70.483,44.249v-1.482c0-0.168,0.038-0.324,0.115-0.469c0.077-0.144,0.146-0.244,0.209-0.302s0.168-0.149,0.316-0.273
	c0.197-0.173,0.43-0.26,0.698-0.26h0.9c0.062,0,0.122,0.004,0.18,0.011c0.058,0.008,0.115,0.024,0.173,0.051
	s0.104,0.045,0.137,0.058c0.034,0.012,0.079,0.041,0.137,0.086c0.058,0.046,0.095,0.074,0.112,0.087
	c0.017,0.012,0.058,0.045,0.122,0.101c0.064,0.055,0.1,0.085,0.104,0.09c0.254,0.221,0.382,0.494,0.382,0.821v1.482
	c0,0.077-0.005,0.148-0.015,0.213s-0.031,0.128-0.065,0.19c-0.033,0.062-0.059,0.112-0.075,0.147
	c-0.017,0.036-0.057,0.086-0.119,0.148c-0.062,0.062-0.1,0.101-0.111,0.114c-0.012,0.015-0.059,0.058-0.141,0.13l-0.122,0.101
	c-0.196,0.173-0.43,0.26-0.698,0.26h-0.9c-0.076,0-0.149-0.009-0.22-0.025c-0.069-0.017-0.128-0.033-0.176-0.051
	c-0.048-0.017-0.104-0.046-0.169-0.09c-0.065-0.043-0.111-0.074-0.138-0.094c-0.026-0.019-0.071-0.058-0.137-0.115
	c-0.064-0.058-0.106-0.093-0.126-0.107C70.608,44.864,70.483,44.59,70.483,44.249z M65.451,41.83c0-0.101,0.034-0.188,0.104-0.259
	c0.07-0.072,0.155-0.108,0.256-0.108h0.353v-0.245c0-0.354,0.125-0.657,0.375-0.907c0.249-0.249,0.552-0.374,0.907-0.374h0.871
	c0.101,0,0.186,0.036,0.256,0.108c0.069,0.071,0.104,0.155,0.104,0.252c0,0.101-0.035,0.187-0.104,0.259
	c-0.07,0.072-0.155,0.108-0.256,0.108h-0.871c-0.153,0-0.284,0.054-0.393,0.162c-0.108,0.107-0.162,0.238-0.162,0.392v0.245h0.713
	c0.096,0,0.18,0.036,0.252,0.108c0.072,0.071,0.108,0.158,0.108,0.259s-0.036,0.187-0.108,0.256s-0.156,0.104-0.252,0.104h-0.713
	v2.995c0,0.101-0.035,0.188-0.104,0.259c-0.069,0.072-0.154,0.108-0.256,0.108c-0.101,0-0.187-0.036-0.259-0.108
	c-0.072-0.071-0.108-0.158-0.108-0.259V42.19h-0.353c-0.101,0-0.186-0.035-0.256-0.104C65.485,42.017,65.451,41.931,65.451,41.83z
	 M60.072,45.186V41.83c0-0.101,0.035-0.188,0.104-0.259c0.069-0.072,0.155-0.108,0.256-0.108s0.188,0.036,0.259,0.108
	c0.072,0.071,0.108,0.158,0.108,0.259v0.245l0.691-0.439c0.183-0.115,0.377-0.173,0.583-0.173h0.41c0.293,0,0.544,0.103,0.753,0.306
	c0.208,0.204,0.317,0.45,0.327,0.738l0.087,2.679c0,0.101-0.035,0.188-0.104,0.259c-0.07,0.072-0.155,0.108-0.256,0.108
	c-0.096,0-0.18-0.035-0.252-0.104s-0.108-0.152-0.108-0.248l-0.094-2.672c-0.009-0.091-0.046-0.17-0.111-0.237
	c-0.064-0.067-0.146-0.101-0.241-0.101h-0.511L60.8,42.946v2.239c0,0.101-0.036,0.188-0.108,0.259
	c-0.071,0.072-0.158,0.108-0.259,0.108s-0.187-0.036-0.256-0.108C60.107,45.373,60.072,45.286,60.072,45.186z M55.933,40.297v-0.303
	c0-0.101,0.036-0.186,0.108-0.256c0.072-0.069,0.158-0.104,0.259-0.104h0.36c0.096,0,0.18,0.035,0.252,0.104
	c0.072,0.07,0.107,0.155,0.107,0.256v0.303c0,0.101-0.035,0.187-0.107,0.259s-0.156,0.108-0.252,0.108H56.3
	c-0.101,0-0.187-0.036-0.259-0.108S55.933,40.397,55.933,40.297z M55.22,45.186c0-0.096,0.036-0.18,0.108-0.252
	s0.158-0.108,0.259-0.108H56.3V42.19h-0.713c-0.101,0-0.187-0.035-0.259-0.104s-0.108-0.155-0.108-0.256s0.036-0.188,0.108-0.259
	c0.072-0.072,0.158-0.108,0.259-0.108h1.073c0.096,0,0.18,0.036,0.252,0.108c0.072,0.071,0.107,0.158,0.107,0.259v2.995h0.706
	c0.101,0,0.188,0.036,0.259,0.108c0.072,0.072,0.108,0.156,0.108,0.252c0,0.101-0.036,0.188-0.108,0.259
	c-0.071,0.072-0.158,0.108-0.259,0.108h-2.139c-0.101,0-0.187-0.036-0.259-0.108C55.256,45.373,55.22,45.286,55.22,45.186z
	 M50.728,44.271v-0.611c0-0.101,0.036-0.187,0.107-0.256c0.072-0.069,0.159-0.104,0.26-0.104h0.713c0.101,0,0.187,0.035,0.259,0.104
	s0.108,0.155,0.108,0.256v0.611c0,0.102-0.036,0.188-0.108,0.26s-0.158,0.108-0.259,0.108h-0.713c-0.101,0-0.188-0.036-0.26-0.108
	C50.764,44.458,50.728,44.372,50.728,44.271z M44.456,45.186V41.83c0-0.101,0.035-0.188,0.104-0.259
	c0.07-0.072,0.155-0.108,0.256-0.108s0.188,0.036,0.259,0.108c0.072,0.071,0.108,0.158,0.108,0.259v0.245l0.691-0.439
	c0.183-0.115,0.377-0.173,0.583-0.173h0.41c0.293,0,0.544,0.103,0.753,0.306c0.209,0.204,0.317,0.45,0.327,0.738l0.087,2.679
	c0,0.101-0.035,0.188-0.104,0.259c-0.069,0.072-0.155,0.108-0.256,0.108c-0.096,0-0.18-0.035-0.252-0.104s-0.108-0.152-0.108-0.248
	l-0.093-2.672c-0.01-0.091-0.047-0.17-0.112-0.237c-0.064-0.067-0.145-0.101-0.241-0.101h-0.511l-1.174,0.756v2.239
	c0,0.101-0.036,0.188-0.108,0.259c-0.071,0.072-0.158,0.108-0.259,0.108s-0.186-0.036-0.256-0.108
	C44.491,45.373,44.456,45.286,44.456,45.186z M39.979,44.473c0,0.096,0.033,0.179,0.101,0.248c0.067,0.07,0.148,0.104,0.245,0.104
	h0.972l0.771-0.453v-0.317c0-0.086-0.037-0.164-0.111-0.233c-0.075-0.07-0.155-0.104-0.241-0.104h-1.39
	c-0.092,0-0.172,0.034-0.241,0.104c-0.07,0.069-0.104,0.152-0.104,0.248V44.473z M39.251,44.473v-0.403
	c0-0.298,0.105-0.552,0.316-0.763c0.212-0.212,0.464-0.317,0.757-0.317h1.39c0.115,0,0.221,0.017,0.316,0.051
	c0-0.034-0.001-0.09-0.004-0.17c-0.002-0.079-0.005-0.137-0.007-0.172c-0.003-0.036-0.007-0.088-0.015-0.155
	c-0.007-0.067-0.018-0.116-0.032-0.147s-0.035-0.066-0.062-0.104s-0.06-0.064-0.101-0.079s-0.09-0.021-0.147-0.021h-1.339
	c-0.102,0-0.187-0.035-0.256-0.104s-0.104-0.155-0.104-0.256s0.035-0.188,0.104-0.259c0.069-0.072,0.154-0.108,0.256-0.108h1.339
	c0.293,0,0.544,0.103,0.752,0.306c0.209,0.204,0.318,0.45,0.328,0.738l0.094,2.686c0,0.101-0.037,0.187-0.112,0.256
	c-0.074,0.069-0.161,0.104-0.263,0.104c-0.096,0-0.179-0.036-0.248-0.108c-0.069-0.071-0.104-0.155-0.104-0.252l-0.533,0.31
	c-0.048,0.034-0.107,0.051-0.18,0.051h-1.072c-0.293,0-0.545-0.105-0.757-0.317C39.356,45.024,39.251,44.771,39.251,44.473z
	 M33.988,45.186V41.83c0-0.101,0.035-0.188,0.104-0.259c0.07-0.072,0.155-0.108,0.256-0.108c0.077,0,0.147,0.024,0.212,0.072
	s0.109,0.107,0.133,0.18c0.197-0.168,0.403-0.252,0.619-0.252c0.292,0,0.525,0.115,0.698,0.346l0.159-0.13
	c0.158-0.129,0.338-0.194,0.54-0.194c0.226,0,0.425,0.079,0.598,0.238c0.173,0.158,0.262,0.35,0.266,0.575l0.108,2.888
	c0,0.101-0.035,0.188-0.104,0.259c-0.069,0.072-0.155,0.108-0.255,0.108c-0.096,0-0.18-0.035-0.252-0.104
	c-0.072-0.069-0.11-0.152-0.115-0.248l-0.101-2.873c-0.009-0.092-0.05-0.137-0.122-0.137h-0.043l-0.49,0.417v2.578
	c0,0.101-0.036,0.188-0.108,0.259c-0.072,0.072-0.156,0.108-0.252,0.108c-0.101,0-0.187-0.036-0.259-0.108
	c-0.072-0.071-0.108-0.158-0.108-0.259v-2.837c0-0.105-0.053-0.158-0.158-0.158h-0.058l-0.54,0.468v2.527
	c0,0.101-0.036,0.188-0.108,0.259c-0.072,0.072-0.159,0.108-0.259,0.108c-0.101,0-0.186-0.036-0.256-0.108
	C34.023,45.373,33.988,45.286,33.988,45.186z M29.567,44.473c0,0.096,0.034,0.179,0.101,0.248c0.067,0.07,0.148,0.104,0.245,0.104
	h0.972l0.77-0.453v-0.317c0-0.086-0.037-0.164-0.111-0.233c-0.074-0.07-0.155-0.104-0.241-0.104h-1.39
	c-0.091,0-0.171,0.034-0.241,0.104c-0.069,0.069-0.104,0.152-0.104,0.248V44.473z M28.84,44.473v-0.403
	c0-0.298,0.105-0.552,0.317-0.763c0.211-0.212,0.463-0.317,0.756-0.317h1.39c0.115,0,0.221,0.017,0.317,0.051
	c0-0.034-0.001-0.09-0.004-0.17c-0.002-0.079-0.004-0.137-0.007-0.172c-0.002-0.036-0.007-0.088-0.015-0.155
	s-0.018-0.116-0.032-0.147c-0.015-0.031-0.035-0.066-0.062-0.104c-0.026-0.038-0.06-0.064-0.101-0.079s-0.09-0.021-0.147-0.021
	h-1.339c-0.101,0-0.186-0.035-0.255-0.104c-0.07-0.069-0.104-0.155-0.104-0.256s0.035-0.188,0.104-0.259
	c0.069-0.072,0.155-0.108,0.255-0.108h1.339c0.292,0,0.543,0.103,0.752,0.306c0.208,0.204,0.318,0.45,0.328,0.738l0.093,2.686
	c0,0.101-0.037,0.187-0.111,0.256c-0.075,0.069-0.162,0.104-0.263,0.104c-0.096,0-0.179-0.036-0.248-0.108
	c-0.07-0.071-0.104-0.155-0.104-0.252l-0.533,0.31c-0.048,0.034-0.108,0.051-0.18,0.051h-1.073c-0.293,0-0.545-0.105-0.756-0.317
	C28.946,45.024,28.84,44.771,28.84,44.473z M24.362,43.939c0,0.11,0.041,0.199,0.122,0.267l0.619,0.533
	c0.058,0.058,0.135,0.086,0.23,0.086h0.54c0.067,0,0.127-0.015,0.18-0.043c0.053-0.029,0.115-0.079,0.187-0.151
	c0.072-0.072,0.113-0.11,0.123-0.115c0.086-0.067,0.129-0.156,0.129-0.267v-1.482c0-0.067-0.016-0.125-0.047-0.173
	c-0.031-0.049-0.084-0.104-0.158-0.166s-0.114-0.096-0.119-0.101c-0.101-0.092-0.199-0.137-0.295-0.137h-0.54
	c-0.096,0-0.173,0.028-0.23,0.086l-0.619,0.533c-0.082,0.053-0.122,0.142-0.122,0.267V43.939z M23.635,45.186v-4.889
	c0-0.097,0.035-0.181,0.104-0.252c0.07-0.072,0.155-0.108,0.256-0.108c0.101,0,0.187,0.036,0.259,0.108
	c0.072,0.071,0.108,0.155,0.108,0.252v1.627c0.326-0.308,0.65-0.461,0.972-0.461h0.54c0.062,0,0.123,0.004,0.18,0.011
	c0.058,0.008,0.115,0.024,0.173,0.051s0.103,0.045,0.137,0.058c0.034,0.012,0.079,0.041,0.137,0.086
	c0.058,0.046,0.095,0.074,0.112,0.087c0.017,0.012,0.058,0.045,0.122,0.101c0.065,0.055,0.1,0.085,0.104,0.09
	c0.254,0.221,0.382,0.494,0.382,0.821v1.482c0,0.077-0.005,0.148-0.015,0.213s-0.031,0.128-0.065,0.19
	c-0.033,0.062-0.059,0.112-0.075,0.147c-0.017,0.036-0.057,0.086-0.119,0.148c-0.062,0.062-0.1,0.101-0.111,0.114
	c-0.012,0.015-0.059,0.058-0.141,0.13l-0.122,0.101c-0.197,0.173-0.43,0.26-0.699,0.26h-0.54c-0.139,0-0.273-0.026-0.403-0.079
	c-0.13-0.053-0.229-0.107-0.299-0.162c-0.07-0.056-0.16-0.134-0.27-0.234v0.108c0,0.101-0.036,0.188-0.108,0.259
	c-0.072,0.072-0.158,0.108-0.259,0.108c-0.101,0-0.186-0.036-0.256-0.108C23.67,45.373,23.635,45.286,23.635,45.186z M19.149,43.939
	c0,0.13,0.071,0.26,0.212,0.389c0.142,0.13,0.277,0.195,0.407,0.195h0.54c0.096,0,0.173-0.029,0.23-0.087l0.619-0.533
	c0.086-0.066,0.13-0.155,0.13-0.266v-0.562c0-0.102-0.043-0.19-0.13-0.267l-0.619-0.533c-0.058-0.058-0.134-0.086-0.23-0.086h-0.54
	c-0.072,0-0.135,0.017-0.19,0.05c-0.055,0.034-0.112,0.079-0.169,0.137s-0.101,0.097-0.129,0.115
	c-0.086,0.087-0.13,0.178-0.13,0.274V43.939z M18.43,43.939v-1.173c0-0.053,0.003-0.106,0.011-0.159s0.014-0.098,0.021-0.137
	c0.007-0.038,0.024-0.081,0.05-0.129c0.026-0.049,0.044-0.084,0.054-0.108s0.034-0.059,0.072-0.104
	c0.039-0.046,0.062-0.075,0.072-0.09c0.009-0.015,0.04-0.043,0.09-0.087c0.05-0.043,0.079-0.068,0.086-0.075
	s0.039-0.033,0.094-0.079s0.085-0.071,0.09-0.075c0.197-0.173,0.43-0.26,0.698-0.26h0.54c0.077,0,0.151,0.009,0.223,0.025
	c0.072,0.017,0.131,0.033,0.177,0.051c0.045,0.017,0.104,0.049,0.176,0.097s0.118,0.079,0.137,0.094s0.066,0.055,0.141,0.122
	c0.074,0.067,0.116,0.104,0.126,0.108v-0.13c0-0.101,0.035-0.188,0.104-0.259c0.069-0.072,0.155-0.108,0.255-0.108
	s0.187,0.036,0.259,0.108c0.072,0.071,0.108,0.158,0.108,0.259v3.945c0,0.077-0.005,0.148-0.014,0.213
	c-0.01,0.064-0.031,0.128-0.065,0.19s-0.059,0.112-0.076,0.147c-0.017,0.036-0.057,0.086-0.119,0.148
	c-0.062,0.062-0.1,0.101-0.112,0.115c-0.012,0.014-0.059,0.058-0.14,0.129l-0.123,0.101c-0.197,0.173-0.43,0.26-0.698,0.26h-1.52
	c-0.101,0-0.187-0.035-0.259-0.104c-0.072-0.069-0.108-0.155-0.108-0.256s0.036-0.187,0.108-0.259
	c0.072-0.072,0.159-0.108,0.259-0.108h1.52c0.067,0,0.128-0.017,0.184-0.05c0.055-0.034,0.116-0.082,0.184-0.145
	c0.067-0.062,0.108-0.101,0.122-0.115c0.086-0.067,0.13-0.156,0.13-0.267v-1.015c-0.11,0.101-0.202,0.18-0.274,0.237
	c-0.072,0.058-0.172,0.114-0.302,0.169c-0.129,0.056-0.264,0.083-0.403,0.083h-0.54c-0.072,0-0.145-0.008-0.219-0.025
	c-0.075-0.017-0.133-0.032-0.177-0.047c-0.043-0.014-0.101-0.046-0.172-0.097c-0.072-0.051-0.117-0.082-0.133-0.094
	c-0.017-0.012-0.064-0.054-0.141-0.126l-0.123-0.101C18.554,44.545,18.43,44.271,18.43,43.939z M14.29,44.271v-0.611
	c0-0.101,0.036-0.187,0.108-0.256c0.072-0.069,0.158-0.104,0.259-0.104h0.713c0.101,0,0.188,0.035,0.259,0.104
	c0.072,0.069,0.108,0.155,0.108,0.256v0.611c0,0.102-0.036,0.188-0.108,0.26c-0.072,0.072-0.158,0.108-0.259,0.108h-0.713
	c-0.101,0-0.187-0.036-0.259-0.108C14.326,44.458,14.29,44.372,14.29,44.271z M9.084,40.297v-0.303c0-0.101,0.036-0.186,0.108-0.256
	c0.072-0.069,0.158-0.104,0.259-0.104h0.36c0.096,0,0.18,0.035,0.252,0.104c0.072,0.07,0.108,0.155,0.108,0.256v0.303
	c0,0.101-0.036,0.187-0.108,0.259c-0.072,0.072-0.156,0.108-0.252,0.108h-0.36c-0.101,0-0.188-0.036-0.259-0.108
	S9.084,40.397,9.084,40.297z M8.372,45.186c0-0.096,0.036-0.18,0.108-0.252c0.072-0.072,0.159-0.108,0.259-0.108h0.713V42.19H8.739
	c-0.101,0-0.187-0.035-0.259-0.104c-0.072-0.069-0.108-0.155-0.108-0.256s0.036-0.188,0.108-0.259
	c0.072-0.072,0.159-0.108,0.259-0.108h1.073c0.096,0,0.18,0.036,0.252,0.108c0.072,0.071,0.108,0.158,0.108,0.259v2.995h0.706
	c0.101,0,0.187,0.036,0.259,0.108c0.072,0.072,0.108,0.156,0.108,0.252c0,0.101-0.036,0.188-0.108,0.259
	c-0.072,0.072-0.158,0.108-0.259,0.108H8.739c-0.101,0-0.187-0.036-0.259-0.108C8.408,45.373,8.372,45.286,8.372,45.186z
	 M3.541,43.976c0,0.058,0.012,0.111,0.036,0.162s0.048,0.089,0.072,0.115c0.024,0.026,0.062,0.062,0.112,0.104
	s0.083,0.072,0.097,0.086c0.034,0.034,0.079,0.081,0.137,0.141c0.058,0.061,0.11,0.114,0.159,0.162
	c0.048,0.048,0.093,0.091,0.137,0.13c0.067,0.067,0.151,0.101,0.252,0.101h0.151c0.096,0,0.173-0.028,0.23-0.086l0.626-0.533
	c0.082-0.062,0.123-0.151,0.123-0.267v-1.159c0-0.115-0.041-0.204-0.123-0.267l-0.626-0.54c-0.058-0.058-0.134-0.086-0.23-0.086
	H4.542c-0.101,0-0.185,0.033-0.252,0.101l-0.648,0.655c-0.067,0.053-0.101,0.135-0.101,0.245V43.976z M2.813,46.719v-5.047
	c0-0.096,0.035-0.18,0.104-0.252c0.069-0.072,0.155-0.108,0.255-0.108c0.101,0,0.188,0.036,0.259,0.108s0.108,0.156,0.108,0.252
	v0.194c0.01-0.01,0.037-0.038,0.083-0.086c0.045-0.049,0.076-0.078,0.09-0.091c0.015-0.012,0.043-0.038,0.086-0.079
	c0.043-0.041,0.077-0.068,0.101-0.083c0.024-0.014,0.058-0.037,0.101-0.068c0.043-0.031,0.083-0.053,0.119-0.064
	s0.077-0.026,0.123-0.043s0.094-0.027,0.144-0.032s0.102-0.008,0.155-0.008h0.151c0.14,0,0.275,0.029,0.407,0.087
	c0.132,0.058,0.23,0.111,0.295,0.162c0.065,0.05,0.157,0.131,0.277,0.241c0.01,0.009,0.072,0.063,0.187,0.162
	c0.115,0.098,0.188,0.165,0.216,0.201s0.078,0.1,0.147,0.19c0.069,0.092,0.116,0.183,0.14,0.273
	c0.024,0.092,0.036,0.192,0.036,0.303v1.159c0,0.326-0.127,0.601-0.381,0.821l-0.619,0.532c-0.197,0.173-0.432,0.26-0.706,0.26
	H4.542c-0.149,0-0.289-0.029-0.421-0.087c-0.132-0.058-0.236-0.12-0.313-0.187c-0.077-0.067-0.166-0.156-0.267-0.267v1.555
	c0,0.101-0.036,0.187-0.108,0.256s-0.158,0.104-0.259,0.104c-0.101,0-0.186-0.035-0.255-0.104
	C2.848,46.905,2.813,46.819,2.813,46.719z"/>
<path d="M71.208,44.249v-1.482c0-0.111,0.041-0.201,0.123-0.27l0,0h0.001c0.009-0.005,0.049-0.043,0.121-0.114
	c0.072-0.072,0.135-0.123,0.188-0.152c0.054-0.028,0.114-0.043,0.182-0.043h0.9c0.125,0,0.261,0.065,0.405,0.195
	s0.217,0.258,0.217,0.384v1.482c0,0.111-0.044,0.201-0.131,0.27l0,0l0,0c-0.01,0.005-0.05,0.043-0.122,0.114
	c-0.072,0.072-0.135,0.123-0.188,0.152c-0.054,0.028-0.114,0.043-0.182,0.043h-0.9c-0.082,0-0.159-0.029-0.232-0.087l0.002-0.002
	l-0.002,0.002c-0.019-0.015-0.058-0.044-0.115-0.09s-0.102-0.083-0.133-0.111c-0.031-0.029-0.062-0.07-0.091-0.124
	C71.222,44.363,71.208,44.308,71.208,44.249z M71.214,44.249c0,0.058,0.014,0.112,0.043,0.164c0.028,0.053,0.058,0.094,0.089,0.122
	s0.075,0.065,0.133,0.111s0.097,0.076,0.115,0.09l0,0l0,0c0.072,0.058,0.147,0.086,0.229,0.086h0.9c0.066,0,0.126-0.014,0.179-0.043
	c0.053-0.028,0.114-0.078,0.187-0.15c0.071-0.072,0.113-0.11,0.123-0.116l0.001,0.003l-0.002-0.002
	c0.086-0.067,0.129-0.154,0.129-0.265v-1.482c0-0.124-0.071-0.251-0.215-0.38s-0.277-0.193-0.401-0.193h-0.9
	c-0.066,0-0.126,0.014-0.179,0.043c-0.052,0.028-0.114,0.078-0.187,0.15c-0.071,0.072-0.112,0.11-0.123,0.116L71.333,42.5
	l0.002,0.002c-0.081,0.067-0.121,0.154-0.121,0.265V44.249z M70.486,44.249c0,0.341,0.124,0.613,0.373,0.819l-0.002,0.002
	l0.002-0.003c0.02,0.015,0.062,0.051,0.126,0.108c0.065,0.058,0.11,0.096,0.137,0.115s0.072,0.05,0.137,0.094
	c0.064,0.043,0.121,0.072,0.169,0.09c0.048,0.017,0.106,0.033,0.176,0.05s0.143,0.025,0.219,0.025h0.9
	c0.269,0,0.5-0.086,0.696-0.259l0,0l0,0l0.122-0.101l0.002,0.002l-0.002-0.002c0.082-0.072,0.129-0.115,0.141-0.129
	c0.012-0.015,0.049-0.054,0.111-0.116c0.062-0.062,0.102-0.11,0.118-0.146c0.018-0.036,0.042-0.085,0.076-0.147
	c0.033-0.062,0.055-0.126,0.064-0.19s0.015-0.135,0.015-0.212v-1.482c0-0.326-0.127-0.599-0.381-0.819l0,0l0,0
	c-0.005-0.005-0.04-0.034-0.104-0.09c-0.064-0.055-0.105-0.089-0.122-0.101s-0.055-0.041-0.112-0.086
	c-0.057-0.046-0.103-0.074-0.136-0.086c-0.033-0.013-0.079-0.031-0.137-0.058s-0.114-0.043-0.172-0.051
	c-0.058-0.007-0.117-0.011-0.18-0.011h-0.9c-0.268,0-0.5,0.086-0.696,0.259l0,0l0,0c-0.148,0.125-0.254,0.216-0.316,0.273
	s-0.132,0.157-0.208,0.302c-0.077,0.144-0.115,0.299-0.115,0.467V44.249z M70.48,44.249v-1.482c0-0.169,0.038-0.325,0.115-0.47
	s0.146-0.245,0.21-0.304c0.062-0.058,0.168-0.148,0.316-0.273l0.002,0.003l-0.002-0.003c0.197-0.173,0.431-0.26,0.7-0.26h0.9
	c0.062,0,0.122,0.004,0.181,0.011c0.058,0.008,0.115,0.024,0.173,0.051s0.104,0.046,0.137,0.058c0.034,0.012,0.08,0.041,0.138,0.087
	c0.058,0.045,0.095,0.074,0.111,0.086c0.018,0.013,0.059,0.046,0.123,0.102c0.064,0.055,0.1,0.085,0.104,0.09l-0.002,0.002
	l0.002-0.002c0.255,0.221,0.383,0.496,0.383,0.823v1.482c0,0.077-0.005,0.148-0.015,0.213c-0.01,0.065-0.031,0.13-0.065,0.192
	c-0.033,0.062-0.059,0.111-0.075,0.147c-0.018,0.036-0.057,0.086-0.119,0.148s-0.1,0.101-0.112,0.114
	c-0.012,0.015-0.059,0.059-0.141,0.131l0,0l0,0l-0.122,0.101l-0.002-0.003l0.002,0.003c-0.197,0.173-0.431,0.26-0.7,0.26h-0.9
	c-0.077,0-0.15-0.009-0.22-0.025c-0.07-0.017-0.129-0.033-0.177-0.051c-0.049-0.017-0.105-0.047-0.17-0.09
	c-0.065-0.043-0.11-0.074-0.137-0.094c-0.027-0.02-0.072-0.058-0.138-0.115c-0.064-0.058-0.106-0.094-0.126-0.108l0,0l0,0
	C70.605,44.865,70.48,44.591,70.48,44.249z M65.454,41.83c0,0.101,0.034,0.185,0.104,0.254c0.068,0.069,0.153,0.104,0.253,0.104
	h0.353h0.004v0.003v2.995c0,0.1,0.035,0.186,0.106,0.257c0.072,0.071,0.157,0.107,0.257,0.107c0.101,0,0.185-0.036,0.254-0.107
	s0.104-0.157,0.104-0.257V42.19v-0.003h0.003h0.713c0.096,0,0.179-0.034,0.25-0.104s0.107-0.153,0.107-0.254
	c0-0.1-0.036-0.186-0.107-0.257s-0.154-0.107-0.25-0.107h-0.713h-0.003v-0.003v-0.245c0-0.153,0.055-0.286,0.163-0.395
	s0.24-0.162,0.395-0.162h0.871c0.101,0,0.185-0.036,0.253-0.107c0.069-0.071,0.104-0.157,0.104-0.257
	c0-0.096-0.035-0.179-0.104-0.25c-0.068-0.071-0.152-0.107-0.253-0.107h-0.871c-0.354,0-0.656,0.124-0.905,0.374
	c-0.249,0.249-0.373,0.55-0.373,0.904v0.245v0.003h-0.004h-0.353c-0.1,0-0.184,0.036-0.253,0.107S65.454,41.729,65.454,41.83z
	 M65.447,41.83c0-0.102,0.036-0.188,0.105-0.261c0.07-0.073,0.156-0.109,0.258-0.109h0.353v0.003H66.16v-0.245
	c0-0.355,0.126-0.659,0.376-0.909s0.553-0.375,0.909-0.375h0.871c0.102,0,0.188,0.036,0.258,0.109
	c0.07,0.072,0.105,0.157,0.105,0.254c0,0.102-0.035,0.188-0.105,0.261s-0.156,0.109-0.258,0.109h-0.871
	c-0.153,0-0.283,0.054-0.391,0.161s-0.161,0.237-0.161,0.39v0.245h-0.003V41.46h0.713c0.097,0,0.182,0.036,0.254,0.109
	c0.072,0.072,0.109,0.159,0.109,0.261s-0.037,0.188-0.109,0.258s-0.157,0.105-0.254,0.105h-0.713V42.19h0.003v2.995
	c0,0.102-0.035,0.188-0.105,0.261c-0.069,0.073-0.156,0.109-0.258,0.109c-0.101,0-0.188-0.036-0.261-0.109
	c-0.072-0.072-0.109-0.159-0.109-0.261V42.19h0.003v0.003h-0.353c-0.102,0-0.188-0.035-0.258-0.105
	C65.483,42.018,65.447,41.932,65.447,41.83z M60.075,45.186c0,0.1,0.035,0.186,0.104,0.257c0.069,0.071,0.153,0.107,0.254,0.107
	s0.186-0.036,0.257-0.107c0.072-0.071,0.107-0.157,0.107-0.257v-2.239v-0.002l0.001-0.001l1.174-0.756h0.001h0.001h0.511
	c0.097,0,0.179,0.034,0.243,0.102c0.065,0.067,0.104,0.147,0.113,0.239l0,0l0,0l0.093,2.671V45.2l0,0
	c0,0.095,0.036,0.177,0.107,0.246s0.154,0.104,0.25,0.104c0.101,0,0.185-0.036,0.253-0.107c0.069-0.071,0.104-0.157,0.104-0.257
	h0.003h-0.003l-0.087-2.679h0.003h-0.003c-0.01-0.287-0.118-0.532-0.326-0.735c-0.209-0.204-0.459-0.306-0.751-0.306h-0.41
	c-0.206,0-0.399,0.058-0.582,0.173l-0.001-0.003l0.001,0.003l-0.69,0.438l-0.005,0.003v-0.005V41.83c0-0.1-0.035-0.186-0.107-0.257
	c-0.071-0.071-0.156-0.107-0.257-0.107s-0.185,0.036-0.254,0.107c-0.068,0.071-0.104,0.156-0.104,0.257V45.186z M60.069,45.186
	V41.83c0-0.102,0.035-0.188,0.105-0.261c0.07-0.073,0.156-0.109,0.258-0.109s0.188,0.036,0.262,0.109
	c0.072,0.072,0.108,0.159,0.108,0.261v0.245H60.8l-0.002-0.003l0.691-0.439l0,0l0,0c0.183-0.115,0.378-0.173,0.585-0.173h0.41
	c0.294,0,0.546,0.103,0.755,0.307c0.209,0.205,0.318,0.452,0.328,0.74l0,0l0.087,2.679l0,0l0,0c0,0.102-0.035,0.188-0.105,0.261
	c-0.07,0.073-0.156,0.109-0.258,0.109c-0.097,0-0.182-0.035-0.254-0.105s-0.109-0.153-0.109-0.25h0.003h-0.003l-0.094-2.672h0.003
	l-0.003,0.001c-0.009-0.091-0.046-0.169-0.11-0.236c-0.064-0.066-0.144-0.1-0.239-0.1h-0.511V42.19l0.001,0.002l-1.173,0.756
	L60.8,42.946h0.003v2.239c0,0.102-0.036,0.188-0.108,0.261c-0.073,0.073-0.16,0.109-0.262,0.109s-0.188-0.036-0.258-0.109
	C60.104,45.374,60.069,45.287,60.069,45.186z M55.936,40.297c0,0.1,0.036,0.186,0.107,0.257s0.157,0.107,0.257,0.107h0.36
	c0.096,0,0.178-0.036,0.25-0.107c0.071-0.071,0.106-0.157,0.106-0.257v-0.303c0-0.101-0.035-0.185-0.106-0.253
	c-0.072-0.069-0.154-0.104-0.25-0.104H56.3c-0.1,0-0.186,0.035-0.257,0.104c-0.071,0.068-0.107,0.152-0.107,0.253V40.297z
	 M55.93,40.297v-0.303c0-0.102,0.036-0.188,0.109-0.258c0.072-0.07,0.159-0.105,0.261-0.105h0.36c0.097,0,0.182,0.035,0.254,0.105
	s0.109,0.156,0.109,0.258v0.303c0,0.102-0.037,0.188-0.109,0.261s-0.157,0.109-0.254,0.109H56.3c-0.102,0-0.188-0.037-0.261-0.109
	C55.966,40.485,55.93,40.398,55.93,40.297z M55.223,45.186c0,0.1,0.036,0.186,0.107,0.257s0.157,0.107,0.257,0.107h2.139
	c0.101,0,0.186-0.036,0.257-0.107c0.072-0.071,0.107-0.157,0.107-0.257c0-0.096-0.035-0.179-0.107-0.25
	c-0.071-0.071-0.156-0.107-0.257-0.107H57.02h-0.003v-0.003V41.83c0-0.1-0.035-0.186-0.106-0.257
	c-0.072-0.071-0.154-0.107-0.25-0.107h-1.073c-0.1,0-0.186,0.036-0.257,0.107s-0.107,0.157-0.107,0.257
	c0,0.101,0.036,0.185,0.107,0.254c0.071,0.068,0.157,0.104,0.257,0.104H56.3h0.003v0.003v2.635v0.003H56.3h-0.713
	c-0.1,0-0.186,0.036-0.257,0.107S55.223,45.09,55.223,45.186z M55.217,45.186c0-0.097,0.037-0.182,0.109-0.254
	c0.072-0.073,0.159-0.109,0.261-0.109H56.3v0.003h-0.003V42.19H56.3v0.003h-0.713c-0.102,0-0.188-0.035-0.261-0.105
	s-0.109-0.156-0.109-0.258s0.037-0.188,0.109-0.261c0.072-0.073,0.159-0.109,0.261-0.109h1.073c0.097,0,0.182,0.036,0.254,0.109
	c0.072,0.072,0.109,0.159,0.109,0.261v2.995H57.02v-0.003h0.706c0.102,0,0.188,0.036,0.262,0.109
	c0.072,0.072,0.108,0.157,0.108,0.254c0,0.102-0.036,0.188-0.108,0.261c-0.073,0.073-0.16,0.109-0.262,0.109h-2.139
	c-0.102,0-0.188-0.036-0.261-0.109C55.254,45.374,55.217,45.287,55.217,45.186z M50.73,44.271c0,0.101,0.035,0.186,0.107,0.258
	c0.071,0.071,0.156,0.106,0.257,0.106h0.713c0.1,0,0.186-0.035,0.257-0.106c0.071-0.072,0.107-0.157,0.107-0.258v-0.611
	c0-0.101-0.036-0.185-0.107-0.254s-0.157-0.104-0.257-0.104h-0.713c-0.101,0-0.186,0.034-0.257,0.104
	c-0.072,0.069-0.107,0.153-0.107,0.254V44.271z M50.725,44.271v-0.611c0-0.102,0.036-0.188,0.108-0.258s0.16-0.105,0.262-0.105
	h0.713c0.102,0,0.188,0.035,0.261,0.105c0.073,0.07,0.109,0.156,0.109,0.258v0.611c0,0.102-0.036,0.189-0.109,0.262
	c-0.072,0.072-0.159,0.109-0.261,0.109h-0.713c-0.102,0-0.189-0.037-0.262-0.109S50.725,44.372,50.725,44.271z M44.459,45.186
	c0,0.1,0.035,0.186,0.104,0.257c0.068,0.071,0.152,0.107,0.253,0.107s0.186-0.036,0.257-0.107c0.072-0.071,0.107-0.157,0.107-0.257
	v-2.239v-0.002l0.001-0.001l1.174-0.756h0.001h0.001h0.511c0.097,0,0.179,0.034,0.243,0.102c0.065,0.067,0.104,0.147,0.113,0.239
	l0,0l0,0l0.093,2.671V45.2l0,0c0,0.095,0.036,0.177,0.107,0.246s0.154,0.104,0.25,0.104c0.101,0,0.185-0.036,0.254-0.107
	c0.068-0.071,0.104-0.157,0.104-0.257h0.003h-0.003l-0.087-2.679h0.003h-0.003c-0.01-0.287-0.118-0.532-0.326-0.735
	c-0.209-0.204-0.458-0.306-0.751-0.306h-0.41c-0.206,0-0.399,0.058-0.582,0.173l-0.001-0.003l0.001,0.003l-0.69,0.438l-0.005,0.003
	v-0.005V41.83c0-0.1-0.035-0.186-0.107-0.257c-0.071-0.071-0.156-0.107-0.257-0.107s-0.185,0.036-0.253,0.107
	c-0.069,0.071-0.104,0.156-0.104,0.257V45.186z M44.453,45.186V41.83c0-0.102,0.035-0.188,0.105-0.261
	c0.07-0.073,0.156-0.109,0.258-0.109s0.188,0.036,0.262,0.109c0.072,0.072,0.108,0.159,0.108,0.261v0.245h-0.003l-0.002-0.003
	l0.691-0.439l0,0l0,0c0.183-0.115,0.378-0.173,0.585-0.173h0.41c0.294,0,0.546,0.103,0.755,0.307
	c0.209,0.205,0.318,0.452,0.328,0.74l0,0l0.087,2.679l0,0l0,0c0,0.102-0.035,0.188-0.105,0.261c-0.07,0.073-0.156,0.109-0.258,0.109
	c-0.097,0-0.182-0.035-0.254-0.105s-0.109-0.153-0.109-0.25h0.003h-0.003l-0.094-2.672h0.004l-0.004,0.001
	c-0.009-0.091-0.046-0.169-0.11-0.236c-0.064-0.066-0.144-0.1-0.239-0.1h-0.511V42.19l0.001,0.002l-1.173,0.756l-0.002-0.002h0.003
	v2.239c0,0.102-0.036,0.188-0.108,0.261c-0.073,0.073-0.16,0.109-0.262,0.109s-0.188-0.036-0.258-0.109
	C44.488,45.374,44.453,45.287,44.453,45.186z M39.976,44.473v-0.403c0-0.097,0.035-0.181,0.104-0.25
	c0.07-0.07,0.152-0.105,0.244-0.105h1.39c0.087,0,0.168,0.035,0.243,0.104c0.074,0.07,0.112,0.149,0.112,0.236v0.317v0.001
	l-0.002,0.001l-0.77,0.454h-0.001h-0.001h-0.972c-0.097,0-0.18-0.035-0.247-0.105C40.01,44.653,39.976,44.569,39.976,44.473z
	 M39.981,44.473c0,0.096,0.033,0.177,0.1,0.246c0.067,0.069,0.147,0.104,0.243,0.104h0.972v0.003l-0.002-0.002l0.771-0.454
	l0.002,0.003h-0.003v-0.317c0-0.085-0.037-0.162-0.111-0.231c-0.073-0.069-0.153-0.104-0.238-0.104h-1.39
	c-0.091,0-0.17,0.034-0.239,0.104s-0.104,0.15-0.104,0.246V44.473z M39.254,44.473c0,0.297,0.105,0.55,0.316,0.761
	s0.461,0.316,0.754,0.316h1.072c0.071,0,0.131-0.017,0.179-0.05l0,0l0,0l0.533-0.31l0.004-0.003v0.005
	c0,0.096,0.034,0.179,0.104,0.25s0.151,0.107,0.246,0.107c0.101,0,0.188-0.034,0.261-0.104c0.074-0.069,0.111-0.153,0.111-0.254
	h0.003h-0.003l-0.094-2.686l0,0c-0.01-0.287-0.118-0.532-0.327-0.735c-0.208-0.204-0.458-0.306-0.75-0.306h-1.339
	c-0.101,0-0.185,0.036-0.254,0.107s-0.104,0.156-0.104,0.257s0.034,0.185,0.104,0.254s0.153,0.104,0.254,0.104h1.339
	c0.058,0,0.107,0.007,0.148,0.021s0.076,0.042,0.103,0.08c0.026,0.039,0.047,0.074,0.062,0.105s0.025,0.081,0.032,0.148
	c0.008,0.067,0.013,0.118,0.015,0.154s0.005,0.094,0.007,0.173c0.003,0.08,0.004,0.136,0.004,0.17v0.004l-0.004-0.001
	c-0.096-0.034-0.201-0.051-0.315-0.051h-1.39c-0.293,0-0.543,0.105-0.754,0.316s-0.316,0.464-0.316,0.761V44.473z M39.248,44.473
	v-0.403c0-0.298,0.106-0.554,0.317-0.766c0.212-0.211,0.465-0.317,0.759-0.317h1.39c0.115,0,0.221,0.017,0.317,0.051L42.03,43.04
	h-0.003c0-0.034-0.001-0.09-0.004-0.169c-0.002-0.08-0.005-0.137-0.007-0.173c-0.003-0.036-0.007-0.088-0.015-0.155
	c-0.007-0.066-0.018-0.115-0.032-0.146c-0.014-0.031-0.034-0.065-0.061-0.104s-0.06-0.064-0.1-0.078
	c-0.04-0.015-0.089-0.021-0.146-0.021h-1.339c-0.102,0-0.188-0.035-0.258-0.105c-0.07-0.07-0.105-0.156-0.105-0.258
	s0.035-0.188,0.105-0.261c0.069-0.073,0.156-0.109,0.258-0.109h1.339c0.293,0,0.545,0.103,0.755,0.307
	c0.209,0.205,0.318,0.452,0.328,0.74h-0.003h0.003l0.094,2.686l0,0l0,0c0,0.102-0.038,0.188-0.112,0.258
	c-0.075,0.07-0.164,0.105-0.266,0.105c-0.097,0-0.181-0.036-0.25-0.109c-0.07-0.072-0.105-0.157-0.105-0.254h0.003l0.002,0.003
	l-0.533,0.31l-0.002-0.003l0.002,0.003c-0.048,0.033-0.109,0.051-0.182,0.051h-1.072c-0.294,0-0.547-0.106-0.759-0.317
	C39.354,45.026,39.248,44.771,39.248,44.473z M33.991,45.186c0,0.1,0.034,0.186,0.104,0.257s0.153,0.107,0.253,0.107
	s0.186-0.036,0.257-0.107c0.072-0.071,0.107-0.157,0.107-0.257v-2.527v-0.001l0.001-0.001l0.54-0.469h0.001h0.001h0.058
	c0.107,0,0.161,0.055,0.161,0.161v2.837c0,0.1,0.036,0.186,0.107,0.257c0.071,0.071,0.157,0.107,0.257,0.107
	c0.096,0,0.178-0.036,0.25-0.107s0.107-0.157,0.107-0.257v-2.578v-0.001l0.001-0.001l0.489-0.418h0.001h0.001h0.043
	c0.073,0,0.116,0.047,0.125,0.14l0,0l0,0l0.101,2.872L36.955,45.2l0.003-0.001c0.005,0.096,0.042,0.178,0.114,0.247
	s0.154,0.104,0.25,0.104c0.1,0,0.184-0.036,0.253-0.107s0.104-0.157,0.104-0.257h0.003h-0.003l-0.108-2.888l0,0l0,0
	c-0.005-0.225-0.093-0.415-0.265-0.573s-0.371-0.237-0.596-0.237c-0.201,0-0.38,0.064-0.538,0.194l-0.158,0.129l-0.002,0.002
	l-0.002-0.002c-0.172-0.23-0.404-0.345-0.696-0.345c-0.215,0-0.421,0.084-0.617,0.251l-0.003,0.003l-0.001-0.004
	c-0.024-0.071-0.068-0.131-0.132-0.179s-0.134-0.071-0.21-0.071c-0.1,0-0.184,0.036-0.253,0.107s-0.104,0.156-0.104,0.257V45.186z
	 M33.985,45.186V41.83c0-0.102,0.036-0.188,0.105-0.261c0.07-0.073,0.156-0.109,0.258-0.109c0.077,0,0.149,0.024,0.214,0.072
	c0.065,0.049,0.11,0.109,0.134,0.182l-0.002,0.001l-0.002-0.002c0.197-0.169,0.404-0.253,0.621-0.253
	c0.293,0,0.527,0.116,0.701,0.347l-0.002,0.002l-0.002-0.002l0.159-0.13c0.159-0.13,0.339-0.195,0.542-0.195
	c0.227,0,0.427,0.08,0.6,0.238c0.173,0.159,0.263,0.353,0.268,0.578h-0.004h0.004l0.107,2.888l0,0l0,0
	c0,0.102-0.035,0.188-0.105,0.261c-0.069,0.073-0.156,0.109-0.257,0.109c-0.097,0-0.182-0.035-0.254-0.105
	c-0.072-0.07-0.111-0.153-0.116-0.25l0,0l0,0l-0.101-2.873h0.003h-0.003c-0.009-0.09-0.049-0.134-0.119-0.134h-0.043V42.19
	l0.002,0.002L36.2,42.61l-0.002-0.003h0.003v2.578c0,0.102-0.037,0.188-0.109,0.261c-0.073,0.073-0.158,0.109-0.254,0.109
	c-0.101,0-0.189-0.036-0.261-0.109c-0.072-0.072-0.109-0.159-0.109-0.261v-2.837c0-0.104-0.051-0.155-0.155-0.155h-0.058V42.19
	l0.002,0.002l-0.54,0.468l-0.002-0.002h0.003v2.527c0,0.102-0.037,0.188-0.109,0.261c-0.072,0.073-0.16,0.109-0.261,0.109
	s-0.188-0.036-0.258-0.109C34.021,45.374,33.985,45.287,33.985,45.186z M29.564,44.473v-0.403c0-0.097,0.035-0.181,0.105-0.25
	c0.07-0.07,0.151-0.105,0.243-0.105h1.39c0.087,0,0.168,0.035,0.243,0.104c0.075,0.07,0.113,0.149,0.113,0.236v0.317v0.001
	l-0.001,0.001l-0.771,0.454h-0.001h0h-0.972c-0.097,0-0.179-0.035-0.247-0.105C29.599,44.653,29.564,44.569,29.564,44.473z
	 M29.57,44.473c0,0.096,0.033,0.177,0.1,0.246s0.147,0.104,0.243,0.104h0.972v0.003l-0.001-0.002l0.77-0.454l0.001,0.003h-0.003
	v-0.317c0-0.085-0.037-0.162-0.11-0.231c-0.074-0.069-0.153-0.104-0.239-0.104h-1.39c-0.09,0-0.17,0.034-0.239,0.104
	c-0.069,0.069-0.104,0.15-0.104,0.246V44.473z M28.843,44.473c0,0.297,0.105,0.55,0.316,0.761s0.462,0.316,0.754,0.316h1.073
	c0.072,0,0.131-0.017,0.178-0.05l0,0h0l0.533-0.31l0.004-0.003v0.005c0,0.096,0.034,0.179,0.104,0.25s0.151,0.107,0.246,0.107
	c0.101,0,0.187-0.034,0.261-0.104c0.074-0.069,0.11-0.153,0.11-0.254h0.003h-0.003l-0.094-2.686l0,0
	c-0.009-0.287-0.118-0.532-0.327-0.735c-0.208-0.204-0.458-0.306-0.75-0.306h-1.339c-0.1,0-0.184,0.036-0.253,0.107
	s-0.104,0.156-0.104,0.257s0.034,0.185,0.104,0.254s0.153,0.104,0.253,0.104h1.339c0.058,0,0.107,0.007,0.148,0.021
	c0.042,0.015,0.076,0.042,0.103,0.08c0.026,0.039,0.047,0.074,0.061,0.105c0.015,0.031,0.025,0.081,0.033,0.148
	s0.012,0.118,0.015,0.154s0.005,0.094,0.007,0.173c0.002,0.08,0.003,0.136,0.003,0.17v0.004l-0.004-0.001
	c-0.096-0.034-0.201-0.051-0.316-0.051h-1.39c-0.292,0-0.543,0.105-0.754,0.316s-0.316,0.464-0.316,0.761V44.473z M28.837,44.473
	v-0.403c0-0.298,0.106-0.554,0.317-0.766c0.212-0.211,0.465-0.317,0.758-0.317h1.39c0.115,0,0.222,0.017,0.318,0.051L31.62,43.04
	h-0.003c0-0.034-0.001-0.09-0.004-0.169c-0.002-0.08-0.005-0.137-0.007-0.173c-0.002-0.036-0.007-0.088-0.015-0.155
	c-0.007-0.066-0.018-0.115-0.032-0.146s-0.035-0.065-0.061-0.104c-0.026-0.038-0.059-0.064-0.099-0.078
	c-0.041-0.015-0.089-0.021-0.146-0.021h-1.339c-0.102,0-0.188-0.035-0.258-0.105c-0.07-0.07-0.105-0.156-0.105-0.258
	s0.035-0.188,0.105-0.261c0.07-0.073,0.156-0.109,0.258-0.109h1.339c0.293,0,0.545,0.103,0.754,0.307
	c0.209,0.205,0.319,0.452,0.329,0.74h-0.003h0.003l0.093,2.686l0,0l0,0c0,0.102-0.038,0.188-0.112,0.258s-0.164,0.105-0.265,0.105
	c-0.096,0-0.18-0.036-0.25-0.109c-0.07-0.072-0.105-0.157-0.105-0.254h0.003l0.001,0.003l-0.533,0.31l-0.001-0.003l0.001,0.003
	c-0.048,0.033-0.109,0.051-0.182,0.051h-1.073c-0.293,0-0.546-0.106-0.758-0.317C28.943,45.026,28.837,44.771,28.837,44.473z
	 M24.359,43.939v-0.863c0-0.126,0.041-0.216,0.124-0.27l0.001,0.003l-0.002-0.003l0.619-0.532l0.002,0.002l-0.002-0.002
	c0.058-0.058,0.136-0.087,0.232-0.087h0.54c0.097,0,0.196,0.046,0.297,0.138l0,0l0,0c0.005,0.004,0.044,0.038,0.119,0.101
	c0.075,0.062,0.127,0.118,0.159,0.166c0.031,0.049,0.047,0.106,0.047,0.175v1.482c0,0.111-0.043,0.201-0.13,0.27h0l0,0
	c-0.009,0.005-0.05,0.043-0.122,0.114c-0.072,0.072-0.135,0.123-0.188,0.152c-0.053,0.028-0.114,0.043-0.182,0.043h-0.54
	c-0.096,0-0.174-0.029-0.232-0.087l0.002-0.002l-0.002,0.002l-0.619-0.533l0.002-0.002l-0.002,0.003
	C24.4,44.141,24.359,44.051,24.359,43.939z M24.365,43.939c0,0.11,0.04,0.197,0.121,0.265l0,0l0,0l0.619,0.532h0v0.001
	c0.057,0.057,0.133,0.085,0.228,0.085h0.54c0.067,0,0.126-0.014,0.179-0.043c0.053-0.028,0.115-0.078,0.187-0.15
	s0.113-0.11,0.123-0.116l0.001,0.003l-0.002-0.002c0.086-0.067,0.128-0.154,0.128-0.265v-1.482c0-0.067-0.015-0.124-0.046-0.172
	c-0.031-0.048-0.083-0.103-0.158-0.165c-0.074-0.062-0.114-0.096-0.119-0.101l0.002-0.002l-0.002,0.002
	c-0.101-0.091-0.198-0.136-0.293-0.136h-0.54c-0.095,0-0.171,0.028-0.228,0.085l0,0l0,0.001l-0.619,0.532l0,0l0,0
	c-0.081,0.053-0.121,0.14-0.121,0.265V43.939z M23.638,45.186c0,0.1,0.035,0.186,0.104,0.257c0.069,0.071,0.153,0.107,0.253,0.107
	c0.1,0,0.186-0.036,0.257-0.107c0.072-0.071,0.107-0.157,0.107-0.257v-0.108V45.07l0.005,0.005c0.11,0.101,0.2,0.179,0.27,0.233
	c0.07,0.056,0.169,0.109,0.298,0.162s0.263,0.079,0.402,0.079h0.54c0.269,0,0.5-0.086,0.696-0.259h0l0,0l0.122-0.101l0.002,0.002
	l-0.002-0.002c0.082-0.072,0.128-0.115,0.14-0.129c0.012-0.015,0.049-0.054,0.112-0.116c0.062-0.062,0.102-0.11,0.118-0.146
	c0.017-0.036,0.042-0.085,0.076-0.147s0.055-0.126,0.064-0.19s0.015-0.135,0.015-0.212v-1.482c0-0.326-0.127-0.599-0.381-0.819l0,0
	l0,0c-0.005-0.005-0.04-0.034-0.104-0.09c-0.064-0.055-0.105-0.089-0.122-0.101s-0.054-0.041-0.112-0.086
	c-0.057-0.046-0.103-0.074-0.136-0.086c-0.034-0.013-0.08-0.031-0.137-0.058c-0.057-0.026-0.114-0.043-0.172-0.051
	c-0.058-0.007-0.117-0.011-0.18-0.011h-0.54c-0.321,0-0.644,0.153-0.97,0.46l-0.005,0.005v-0.007v-1.627
	c0-0.096-0.036-0.179-0.107-0.25c-0.071-0.071-0.157-0.107-0.257-0.107c-0.101,0-0.185,0.036-0.253,0.107
	c-0.069,0.071-0.104,0.154-0.104,0.25V45.186z M23.632,45.186v-4.889c0-0.097,0.035-0.182,0.105-0.254
	c0.07-0.073,0.156-0.109,0.258-0.109c0.101,0,0.188,0.036,0.261,0.108c0.072,0.073,0.109,0.158,0.109,0.255v1.627h-0.003
	l-0.002-0.002c0.327-0.308,0.652-0.462,0.974-0.462h0.54c0.062,0,0.123,0.004,0.181,0.011c0.058,0.008,0.116,0.024,0.173,0.051
	s0.103,0.046,0.137,0.058s0.08,0.041,0.138,0.087c0.058,0.045,0.095,0.074,0.111,0.086c0.017,0.013,0.058,0.046,0.123,0.102
	c0.065,0.055,0.1,0.085,0.104,0.09l-0.002,0.002l0.002-0.002c0.255,0.221,0.383,0.496,0.383,0.823v1.482
	c0,0.077-0.005,0.148-0.015,0.213c-0.01,0.065-0.031,0.13-0.065,0.192s-0.059,0.111-0.076,0.147s-0.057,0.086-0.119,0.148
	s-0.1,0.101-0.112,0.114c-0.012,0.015-0.059,0.059-0.141,0.131l0,0l0,0l-0.123,0.101l-0.001-0.003l0.002,0.003
	c-0.197,0.173-0.431,0.26-0.701,0.26h-0.54c-0.139,0-0.274-0.026-0.404-0.079c-0.13-0.054-0.229-0.107-0.299-0.163
	c-0.07-0.055-0.16-0.133-0.27-0.233l0.002-0.003h0.003v0.108c0,0.102-0.037,0.188-0.109,0.261c-0.073,0.073-0.16,0.109-0.261,0.109
	c-0.102,0-0.188-0.036-0.258-0.109C23.667,45.374,23.632,45.287,23.632,45.186z M19.146,43.939v-1.173
	c0-0.097,0.044-0.189,0.13-0.276h0l0,0c0.029-0.02,0.072-0.058,0.129-0.115s0.114-0.104,0.169-0.137
	c0.056-0.034,0.12-0.051,0.192-0.051h0.54c0.097,0,0.175,0.029,0.233,0.087l-0.002,0.002l0.002-0.002l0.619,0.532l0,0v0.001
	c0.087,0.077,0.131,0.167,0.131,0.269v0.562c0,0.11-0.044,0.201-0.131,0.269l-0.002-0.003l0.002,0.003l-0.619,0.532l-0.002-0.002
	l0.002,0.002c-0.058,0.059-0.136,0.088-0.233,0.088h-0.54c-0.13,0-0.267-0.065-0.409-0.195S19.146,44.07,19.146,43.939z
	 M19.152,43.939c0,0.129,0.07,0.258,0.211,0.387c0.142,0.13,0.276,0.193,0.405,0.193h0.54c0.096,0,0.171-0.028,0.229-0.085l0,0l0,0
	l0.619-0.533l0,0h0c0.085-0.066,0.128-0.154,0.128-0.264v-0.562c0-0.101-0.043-0.188-0.129-0.265l0.002-0.002l-0.002,0.002
	l-0.619-0.532v-0.001l0,0c-0.057-0.057-0.133-0.085-0.229-0.085h-0.54c-0.071,0-0.134,0.017-0.189,0.05
	c-0.055,0.033-0.111,0.079-0.169,0.137s-0.101,0.096-0.13,0.115l-0.001-0.003l0.002,0.003c-0.086,0.086-0.129,0.176-0.129,0.271
	V43.939z M18.433,43.939c0,0.331,0.124,0.604,0.374,0.819l-0.002,0.002l0.002-0.003l0.123,0.102l0,0l0,0
	c0.077,0.072,0.124,0.113,0.14,0.126c0.017,0.012,0.062,0.043,0.133,0.093c0.072,0.051,0.129,0.083,0.172,0.098
	c0.043,0.014,0.102,0.029,0.176,0.046c0.074,0.018,0.147,0.025,0.219,0.025h0.54c0.139,0,0.273-0.027,0.402-0.082
	c0.129-0.056,0.229-0.111,0.302-0.169c0.072-0.058,0.163-0.137,0.273-0.237l0.005-0.005v0.007v1.015c0,0.111-0.044,0.201-0.131,0.27
	l-0.002-0.003l0.002,0.002c-0.015,0.015-0.056,0.054-0.123,0.115c-0.067,0.062-0.129,0.111-0.184,0.145
	c-0.056,0.034-0.118,0.051-0.185,0.051h-1.52c-0.1,0-0.186,0.036-0.257,0.107c-0.072,0.071-0.107,0.157-0.107,0.257
	c0,0.101,0.036,0.185,0.107,0.254c0.071,0.069,0.157,0.104,0.257,0.104h1.52c0.268,0,0.5-0.086,0.696-0.259l0,0l0,0l0.123-0.101
	l0.002,0.002l-0.002-0.002c0.082-0.072,0.128-0.115,0.14-0.129c0.012-0.015,0.05-0.054,0.112-0.116
	c0.062-0.062,0.102-0.11,0.118-0.146c0.017-0.036,0.042-0.085,0.076-0.147c0.034-0.062,0.055-0.125,0.064-0.19
	c0.01-0.064,0.015-0.135,0.015-0.212V41.83c0-0.1-0.036-0.186-0.107-0.257c-0.072-0.071-0.157-0.107-0.257-0.107
	s-0.184,0.036-0.253,0.107s-0.104,0.156-0.104,0.257v0.13v0.005l-0.004-0.002c-0.01-0.006-0.052-0.042-0.126-0.108
	c-0.075-0.067-0.121-0.108-0.141-0.123c-0.019-0.014-0.064-0.045-0.136-0.093c-0.072-0.048-0.13-0.08-0.176-0.098
	c-0.046-0.017-0.104-0.033-0.176-0.05s-0.146-0.025-0.223-0.025h-0.54c-0.268,0-0.5,0.086-0.696,0.259l-0.002-0.002l0.002,0.002
	c-0.005,0.005-0.035,0.03-0.09,0.075c-0.055,0.046-0.086,0.072-0.094,0.079c-0.007,0.008-0.036,0.033-0.086,0.076
	s-0.08,0.071-0.089,0.086c-0.01,0.014-0.034,0.044-0.072,0.09c-0.038,0.046-0.062,0.08-0.071,0.104
	c-0.01,0.024-0.028,0.061-0.054,0.108s-0.043,0.091-0.05,0.129s-0.014,0.084-0.021,0.137s-0.011,0.105-0.011,0.158V43.939z
	 M18.427,43.939v-1.173c0-0.054,0.003-0.106,0.011-0.159s0.014-0.099,0.021-0.137c0.007-0.039,0.024-0.083,0.051-0.131
	s0.044-0.084,0.054-0.107c0.01-0.024,0.034-0.06,0.073-0.105c0.038-0.046,0.062-0.075,0.072-0.09s0.04-0.044,0.09-0.087
	s0.079-0.068,0.086-0.075c0.007-0.008,0.039-0.034,0.094-0.079c0.055-0.046,0.085-0.071,0.09-0.076l0,0l0,0
	c0.197-0.173,0.431-0.26,0.7-0.26h0.54c0.077,0,0.152,0.009,0.224,0.025c0.072,0.017,0.131,0.033,0.177,0.051
	c0.046,0.017,0.105,0.049,0.177,0.097c0.072,0.049,0.118,0.08,0.137,0.094c0.019,0.015,0.066,0.056,0.141,0.123
	c0.074,0.067,0.116,0.103,0.125,0.107l-0.001,0.003h-0.003v-0.13c0-0.102,0.035-0.188,0.105-0.261
	c0.07-0.073,0.156-0.109,0.258-0.109s0.189,0.036,0.261,0.109c0.073,0.072,0.109,0.159,0.109,0.261v3.945
	c0,0.077-0.005,0.148-0.014,0.213c-0.01,0.065-0.032,0.13-0.065,0.192s-0.059,0.111-0.075,0.147
	c-0.017,0.036-0.057,0.086-0.12,0.148s-0.1,0.101-0.111,0.115c-0.012,0.014-0.059,0.058-0.141,0.13l0,0l0,0l-0.123,0.101
	l-0.002-0.003l0.002,0.003c-0.197,0.173-0.431,0.26-0.7,0.26h-1.52c-0.101,0-0.189-0.035-0.261-0.105s-0.109-0.156-0.109-0.258
	s0.037-0.188,0.109-0.261c0.072-0.073,0.16-0.109,0.261-0.109h1.52c0.066,0,0.127-0.017,0.182-0.05
	c0.055-0.033,0.116-0.081,0.183-0.144c0.067-0.062,0.108-0.101,0.123-0.115l0,0h0c0.085-0.067,0.128-0.154,0.128-0.265v-1.015h0.003
	l0.002,0.002c-0.11,0.101-0.202,0.181-0.274,0.238s-0.173,0.114-0.303,0.169c-0.13,0.056-0.265,0.083-0.404,0.083h-0.54
	c-0.072,0-0.146-0.008-0.22-0.025c-0.074-0.017-0.133-0.032-0.177-0.047c-0.043-0.014-0.101-0.047-0.173-0.098
	c-0.072-0.05-0.116-0.081-0.133-0.093c-0.017-0.013-0.064-0.055-0.141-0.127l0.002-0.002l-0.002,0.002l-0.122-0.101l0,0h0
	C18.552,44.547,18.427,44.271,18.427,43.939z M14.293,44.271c0,0.101,0.035,0.186,0.107,0.258c0.072,0.071,0.157,0.106,0.257,0.106
	h0.713c0.101,0,0.186-0.035,0.257-0.106c0.071-0.072,0.107-0.157,0.107-0.258v-0.611c0-0.101-0.036-0.185-0.107-0.254
	c-0.072-0.069-0.157-0.104-0.257-0.104h-0.713c-0.1,0-0.185,0.034-0.257,0.104s-0.107,0.153-0.107,0.254V44.271z M14.287,44.271
	v-0.611c0-0.102,0.037-0.188,0.109-0.258c0.073-0.07,0.16-0.105,0.261-0.105h0.713c0.102,0,0.189,0.035,0.261,0.105
	c0.073,0.07,0.109,0.156,0.109,0.258v0.611c0,0.102-0.036,0.189-0.109,0.262c-0.072,0.072-0.16,0.109-0.261,0.109h-0.713
	c-0.101,0-0.188-0.037-0.261-0.109C14.323,44.46,14.287,44.372,14.287,44.271z M9.087,40.297c0,0.1,0.036,0.186,0.107,0.257
	c0.072,0.071,0.157,0.107,0.257,0.107h0.36c0.096,0,0.178-0.036,0.25-0.107s0.107-0.157,0.107-0.257v-0.303
	c0-0.101-0.035-0.185-0.107-0.253c-0.072-0.069-0.154-0.104-0.25-0.104h-0.36c-0.1,0-0.186,0.035-0.257,0.104
	c-0.071,0.068-0.107,0.152-0.107,0.253V40.297z M9.082,40.297v-0.303c0-0.102,0.036-0.188,0.109-0.258
	c0.072-0.07,0.16-0.105,0.261-0.105h0.36c0.097,0,0.182,0.035,0.254,0.105c0.072,0.07,0.109,0.156,0.109,0.258v0.303
	c0,0.102-0.037,0.188-0.109,0.261c-0.073,0.072-0.158,0.109-0.254,0.109h-0.36c-0.102,0-0.189-0.037-0.261-0.109
	C9.118,40.485,9.082,40.398,9.082,40.297z M8.375,45.186c0,0.1,0.036,0.186,0.107,0.257c0.071,0.071,0.157,0.107,0.257,0.107h2.139
	c0.1,0,0.185-0.036,0.257-0.107s0.107-0.157,0.107-0.257c0-0.096-0.035-0.179-0.107-0.25s-0.157-0.107-0.257-0.107h-0.706h-0.003
	v-0.003V41.83c0-0.1-0.035-0.186-0.107-0.257s-0.154-0.107-0.25-0.107H8.739c-0.1,0-0.186,0.036-0.257,0.107
	C8.41,41.645,8.375,41.73,8.375,41.83c0,0.101,0.036,0.185,0.107,0.254c0.072,0.068,0.157,0.104,0.257,0.104h0.713h0.003v0.003
	v2.635v0.003H9.452H8.739c-0.1,0-0.186,0.036-0.257,0.107C8.41,45.007,8.375,45.09,8.375,45.186z M8.369,45.186
	c0-0.097,0.037-0.182,0.109-0.254c0.072-0.073,0.16-0.109,0.261-0.109h0.713v0.003H9.449V42.19h0.003v0.003H8.739
	c-0.102,0-0.189-0.035-0.261-0.105s-0.109-0.156-0.109-0.258s0.037-0.188,0.109-0.261c0.072-0.073,0.16-0.109,0.261-0.109h1.073
	c0.097,0,0.182,0.036,0.254,0.109c0.072,0.072,0.109,0.159,0.109,0.261v2.995h-0.003v-0.003h0.706c0.101,0,0.188,0.036,0.261,0.109
	c0.072,0.072,0.109,0.157,0.109,0.254c0,0.102-0.037,0.188-0.109,0.261c-0.073,0.073-0.16,0.109-0.261,0.109H8.739
	c-0.102,0-0.189-0.036-0.261-0.109C8.405,45.374,8.369,45.287,8.369,45.186z M3.538,43.976V43.04c0-0.111,0.034-0.194,0.102-0.247
	l0.002,0.002l-0.002-0.002l0.648-0.655l0,0l0,0c0.068-0.067,0.153-0.102,0.254-0.102h0.151c0.097,0,0.175,0.029,0.233,0.087
	l-0.002,0.002l0.002-0.002l0.626,0.54l-0.002,0.002l0.002-0.002c0.082,0.062,0.124,0.153,0.124,0.269v1.159
	c0,0.116-0.042,0.206-0.124,0.269l-0.002-0.002l0.002,0.002l-0.626,0.533l-0.002-0.002l0.002,0.002
	c-0.058,0.058-0.136,0.087-0.233,0.087H4.542c-0.102,0-0.187-0.034-0.254-0.102l0.002-0.002l-0.002,0.002
	c-0.043-0.038-0.089-0.082-0.137-0.13C4.103,44.7,4.05,44.646,3.992,44.586c-0.058-0.06-0.104-0.106-0.137-0.14
	c-0.015-0.015-0.047-0.043-0.097-0.087c-0.05-0.043-0.088-0.078-0.112-0.104c-0.024-0.026-0.048-0.065-0.073-0.116
	C3.55,44.088,3.538,44.034,3.538,43.976z M3.543,43.976c0,0.058,0.012,0.11,0.036,0.161c0.024,0.05,0.048,0.088,0.072,0.114
	s0.061,0.061,0.111,0.104c0.05,0.043,0.083,0.071,0.097,0.086c0.034,0.034,0.08,0.081,0.137,0.141
	c0.058,0.061,0.11,0.114,0.158,0.162s0.093,0.091,0.137,0.13l0,0l0,0c0.067,0.066,0.15,0.1,0.25,0.1h0.151
	c0.096,0,0.171-0.028,0.229-0.086l0,0l0,0l0.626-0.532l0,0l0,0c0.081-0.062,0.122-0.15,0.122-0.265v-1.159
	c0-0.114-0.041-0.202-0.122-0.264l0,0l0,0l-0.626-0.54l0,0l0,0c-0.057-0.058-0.133-0.086-0.229-0.086H4.542
	c-0.1,0-0.183,0.033-0.25,0.1L4.29,42.14l0.002,0.002l-0.648,0.655l0,0h0c-0.066,0.053-0.1,0.133-0.1,0.243V43.976z M2.816,46.719
	c0,0.101,0.034,0.185,0.104,0.254s0.153,0.104,0.253,0.104s0.186-0.034,0.257-0.104c0.071-0.069,0.107-0.153,0.107-0.254v-1.555
	v-0.008l0.005,0.006c0.101,0.11,0.189,0.198,0.266,0.266s0.181,0.129,0.312,0.187c0.131,0.058,0.271,0.087,0.42,0.087h0.151
	c0.273,0,0.507-0.086,0.704-0.259l0,0l0,0l0.619-0.533l0.002,0.003l-0.002-0.003c0.254-0.22,0.38-0.492,0.38-0.818v-1.159
	c0-0.11-0.012-0.211-0.036-0.302s-0.071-0.182-0.14-0.272s-0.119-0.154-0.147-0.19s-0.101-0.103-0.216-0.201
	s-0.178-0.152-0.187-0.162l0.002-0.002L5.67,41.804c-0.12-0.11-0.212-0.19-0.277-0.241c-0.064-0.05-0.163-0.104-0.294-0.161
	c-0.132-0.058-0.267-0.087-0.406-0.087H4.542c-0.053,0-0.104,0.003-0.155,0.008c-0.05,0.005-0.098,0.016-0.143,0.032
	s-0.086,0.031-0.123,0.043c-0.036,0.012-0.075,0.033-0.118,0.064c-0.043,0.031-0.077,0.054-0.101,0.068s-0.057,0.042-0.101,0.082
	c-0.043,0.041-0.072,0.067-0.086,0.08c-0.014,0.012-0.044,0.041-0.09,0.09c-0.045,0.048-0.073,0.076-0.083,0.086l-0.005,0.005
	v-0.007v-0.194c0-0.096-0.036-0.179-0.107-0.25c-0.072-0.071-0.157-0.107-0.257-0.107s-0.184,0.036-0.253,0.107
	s-0.104,0.154-0.104,0.25V46.719z M2.811,46.719v-5.047c0-0.097,0.035-0.182,0.105-0.254c0.07-0.072,0.156-0.109,0.258-0.109
	s0.189,0.037,0.261,0.109c0.073,0.072,0.109,0.157,0.109,0.254v0.194H3.541l-0.002-0.002c0.009-0.01,0.037-0.038,0.083-0.087
	c0.046-0.048,0.076-0.078,0.09-0.09s0.043-0.038,0.086-0.079c0.043-0.041,0.077-0.068,0.101-0.083S3.957,41.488,4,41.457
	c0.043-0.031,0.083-0.053,0.12-0.065c0.036-0.012,0.077-0.026,0.123-0.043s0.094-0.027,0.145-0.032
	c0.051-0.005,0.103-0.008,0.155-0.008h0.151c0.14,0,0.276,0.029,0.408,0.087s0.231,0.111,0.296,0.162s0.157,0.131,0.277,0.241l0,0
	l0,0c0.01,0.01,0.072,0.063,0.187,0.162s0.188,0.166,0.216,0.202s0.078,0.1,0.148,0.19c0.07,0.092,0.117,0.184,0.141,0.275
	c0.024,0.091,0.036,0.192,0.036,0.303v1.159c0,0.327-0.127,0.602-0.382,0.823l0,0l0,0L5.4,45.447l-0.002-0.003L5.4,45.447
	c-0.197,0.173-0.434,0.26-0.708,0.26H4.542c-0.149,0-0.29-0.029-0.422-0.087s-0.237-0.12-0.314-0.188
	c-0.077-0.067-0.166-0.156-0.267-0.267l0.002-0.002h0.003v1.555c0,0.102-0.036,0.188-0.109,0.258
	c-0.072,0.07-0.16,0.105-0.261,0.105c-0.101,0-0.188-0.035-0.258-0.105C2.846,46.906,2.811,46.82,2.811,46.719z"/>
<path d="M70.416,5.078c0.144,0,0.283-0.031,0.417-0.094l1.541-0.777c0.082-0.039,0.123-0.101,0.123-0.188
	c0-0.096-0.039-0.163-0.115-0.201l-1.549-0.771c-0.163-0.067-0.302-0.101-0.417-0.101c-0.145,0-0.283,0.034-0.418,0.101
	l-1.533,0.777c-0.087,0.039-0.13,0.104-0.13,0.194c0,0.082,0.043,0.144,0.13,0.188l1.533,0.777
	C70.133,5.046,70.271,5.078,70.416,5.078z M70.416,5.805c-0.255,0-0.502-0.058-0.742-0.173l-1.548-0.77
	c-0.148-0.077-0.272-0.191-0.37-0.342c-0.099-0.151-0.148-0.318-0.148-0.5c0-0.187,0.05-0.356,0.148-0.507
	c0.098-0.151,0.222-0.265,0.37-0.342l1.548-0.771c0.25-0.12,0.497-0.18,0.742-0.18s0.492,0.06,0.741,0.18l1.548,0.771
	c0.149,0.077,0.272,0.19,0.371,0.342s0.147,0.32,0.147,0.507c0,0.183-0.049,0.35-0.147,0.5c-0.099,0.151-0.222,0.265-0.371,0.342
	l-1.548,0.77C70.937,5.747,70.689,5.805,70.416,5.805z M72.856,11.01c-0.096,0-0.18-0.035-0.252-0.104
	c-0.072-0.069-0.107-0.155-0.107-0.255V9.584h-4.162v1.066c0,0.101-0.036,0.186-0.108,0.255c-0.071,0.07-0.158,0.104-0.259,0.104
	c-0.096,0-0.18-0.035-0.252-0.104c-0.072-0.069-0.108-0.155-0.108-0.255V7.792c0-0.101,0.036-0.188,0.108-0.259
	c0.072-0.072,0.156-0.108,0.252-0.108c0.101,0,0.188,0.036,0.259,0.108c0.072,0.072,0.108,0.158,0.108,0.259v1.065h4.162V7.792
	c0-0.101,0.035-0.188,0.107-0.259c0.072-0.072,0.156-0.108,0.252-0.108c0.101,0,0.188,0.036,0.26,0.108
	c0.071,0.072,0.107,0.158,0.107,0.259v2.858c0,0.101-0.036,0.186-0.107,0.255C73.044,10.976,72.957,11.01,72.856,11.01z
	 M70.358,15.488v-1.764c0-0.096-0.036-0.181-0.108-0.256c-0.071-0.074-0.158-0.111-0.259-0.111h-1.296
	c-0.097,0-0.181,0.037-0.252,0.111c-0.072,0.075-0.108,0.16-0.108,0.256v1.764H70.358z M72.856,16.216h-5.249v-2.491
	c0-0.298,0.107-0.555,0.321-0.771c0.213-0.216,0.469-0.324,0.767-0.324h1.296c0.298,0,0.555,0.108,0.771,0.324
	c0.216,0.216,0.324,0.473,0.324,0.771v1.764h1.771c0.101,0,0.188,0.036,0.26,0.108c0.071,0.072,0.107,0.159,0.107,0.259
	c0,0.101-0.036,0.186-0.107,0.256C73.044,16.181,72.957,16.216,72.856,16.216z M72.13,21.421h-1.951
	c-0.332,0-0.627-0.101-0.886-0.302l-1.268-0.979c-0.278-0.216-0.418-0.504-0.418-0.864v-1.073c0-0.101,0.036-0.187,0.108-0.259
	c0.072-0.072,0.156-0.108,0.252-0.108c0.101,0,0.188,0.036,0.259,0.108c0.072,0.072,0.108,0.158,0.108,0.259v1.073
	c0,0.12,0.048,0.216,0.145,0.288l1.252,0.979c0.135,0.101,0.283,0.151,0.447,0.151h1.951c0.101,0,0.187-0.036,0.259-0.108
	c0.072-0.072,0.108-0.156,0.108-0.252V18.93c0-0.096-0.036-0.181-0.108-0.255c-0.072-0.075-0.158-0.112-0.259-0.112h-0.742v0.713
	c0,0.101-0.034,0.186-0.104,0.255c-0.069,0.07-0.154,0.104-0.255,0.104c-0.102,0-0.188-0.035-0.26-0.104
	c-0.072-0.069-0.107-0.155-0.107-0.255v-1.44h1.469c0.297,0,0.554,0.108,0.77,0.324c0.217,0.216,0.324,0.473,0.324,0.771v1.404
	c0,0.302-0.106,0.559-0.32,0.77C72.689,21.315,72.432,21.421,72.13,21.421z"/>
<path d="M70.416,5.081c-0.145,0-0.284-0.031-0.419-0.094l0,0l0,0l-1.534-0.778l0.002-0.002l-0.002,0.002
	c-0.087-0.043-0.131-0.107-0.131-0.19c0-0.092,0.044-0.158,0.132-0.197l0.001,0.002l-0.002-0.002l1.534-0.778l0,0l0,0
	c0.135-0.067,0.274-0.101,0.419-0.101c0.115,0,0.255,0.034,0.419,0.101l0,0l0,0l1.548,0.771l0,0C72.46,3.854,72.5,3.922,72.5,4.019
	c0,0.087-0.042,0.151-0.124,0.19l-0.002-0.002l0.002,0.002l-1.541,0.778l0,0l0,0C70.7,5.049,70.561,5.081,70.416,5.081z
	 M70.416,5.075c0.144,0,0.282-0.031,0.416-0.093l0.001,0.002l-0.001-0.002l1.541-0.778l0,0l0,0c0.081-0.038,0.121-0.099,0.121-0.185
	c0-0.095-0.038-0.161-0.114-0.199l0.002-0.002L72.38,3.82L70.832,3.05l0.001-0.002L70.832,3.05c-0.163-0.067-0.302-0.1-0.416-0.1
	c-0.144,0-0.282,0.033-0.416,0.1l-0.002-0.002L70,3.05l-1.534,0.778l0,0l0,0c-0.086,0.038-0.128,0.102-0.128,0.191
	c0,0.081,0.042,0.142,0.128,0.185l0,0l0,0L70,4.981l-0.002,0.002L70,4.981C70.134,5.043,70.272,5.075,70.416,5.075z M70.416,5.802
	c0.273,0,0.52-0.057,0.74-0.172l0,0l0,0l1.548-0.771l0.001,0.003l-0.001-0.003c0.148-0.077,0.271-0.19,0.37-0.341
	c0.098-0.151,0.146-0.317,0.146-0.499c0-0.187-0.049-0.355-0.146-0.506c-0.099-0.151-0.222-0.264-0.37-0.341l0.001-0.002
	l-0.001,0.002l-1.548-0.771l0.001-0.002l-0.001,0.002c-0.249-0.12-0.496-0.18-0.74-0.18s-0.491,0.06-0.74,0.18l-0.002-0.002
	l0.002,0.002l-1.548,0.771L68.126,3.17l0.002,0.002c-0.148,0.077-0.271,0.19-0.37,0.341c-0.098,0.151-0.146,0.319-0.146,0.506
	c0,0.182,0.049,0.348,0.146,0.499c0.099,0.151,0.222,0.264,0.37,0.341l-0.002,0.003l0.002-0.003l1.548,0.771l-0.002,0.002
	l0.002-0.002C69.915,5.745,70.162,5.802,70.416,5.802z M70.416,5.808c-0.255,0-0.503-0.058-0.743-0.173l0,0l0,0l-1.548-0.771l0,0
	l0,0c-0.149-0.077-0.273-0.191-0.372-0.343c-0.099-0.152-0.148-0.319-0.148-0.502c0-0.188,0.05-0.357,0.148-0.509
	c0.099-0.152,0.223-0.266,0.372-0.343l0,0l0,0l1.548-0.771l0,0l0,0c0.25-0.12,0.498-0.18,0.743-0.18s0.493,0.06,0.743,0.18l0,0l0,0
	l1.548,0.771l0,0l0,0c0.149,0.077,0.273,0.191,0.372,0.343c0.099,0.151,0.147,0.321,0.147,0.509c0,0.183-0.049,0.351-0.147,0.502
	c-0.099,0.151-0.223,0.266-0.372,0.343l0,0l0,0l-1.548,0.771l-0.002-0.003l0.002,0.003C70.938,5.75,70.689,5.808,70.416,5.808z
	 M72.856,11.007c0.101,0,0.186-0.035,0.257-0.104c0.072-0.069,0.107-0.153,0.107-0.253V7.792c0-0.101-0.035-0.186-0.107-0.257
	c-0.071-0.071-0.156-0.107-0.257-0.107c-0.095,0-0.178,0.036-0.25,0.107C72.535,7.606,72.5,7.691,72.5,7.792v1.065V8.86h-0.003
	h-4.162h-0.003V8.857V7.792c0-0.101-0.035-0.186-0.107-0.257c-0.071-0.071-0.156-0.107-0.257-0.107c-0.096,0-0.178,0.036-0.25,0.107
	c-0.071,0.072-0.106,0.157-0.106,0.257v2.858c0,0.1,0.035,0.184,0.106,0.253c0.071,0.069,0.154,0.104,0.25,0.104
	c0.101,0,0.186-0.035,0.257-0.104c0.072-0.069,0.107-0.153,0.107-0.253V9.584V9.582h0.003h4.162H72.5v0.003v1.066
	c0,0.1,0.035,0.184,0.106,0.253C72.679,10.973,72.762,11.007,72.856,11.007z M72.856,11.013c-0.097,0-0.182-0.035-0.254-0.105
	c-0.072-0.07-0.108-0.157-0.108-0.258V9.584h0.003v0.003h-4.162V9.584h0.003v1.066c0,0.101-0.036,0.188-0.108,0.258
	c-0.073,0.07-0.16,0.105-0.262,0.105c-0.097,0-0.182-0.035-0.254-0.105c-0.072-0.07-0.109-0.157-0.109-0.258V7.792
	c0-0.102,0.037-0.189,0.109-0.261c0.072-0.073,0.157-0.109,0.254-0.109c0.102,0,0.189,0.036,0.262,0.109
	c0.072,0.072,0.108,0.16,0.108,0.261v1.065h-0.003V8.854h4.162v0.003h-0.003V7.792c0-0.102,0.036-0.189,0.108-0.261
	c0.072-0.073,0.157-0.109,0.254-0.109c0.102,0,0.189,0.036,0.262,0.109c0.072,0.072,0.108,0.16,0.108,0.261v2.858
	c0,0.101-0.036,0.188-0.108,0.258C73.046,10.978,72.958,11.013,72.856,11.013z M70.358,15.491h-2.023h-0.003v-0.003v-1.764
	c0-0.097,0.036-0.183,0.108-0.258c0.073-0.075,0.158-0.113,0.255-0.113h1.296c0.102,0,0.188,0.038,0.261,0.113
	c0.073,0.075,0.109,0.161,0.109,0.258v1.764v0.003H70.358z M70.355,15.488v-1.764c0-0.096-0.036-0.18-0.107-0.254
	c-0.071-0.074-0.157-0.11-0.257-0.11h-1.296c-0.096,0-0.179,0.037-0.25,0.11c-0.071,0.074-0.107,0.158-0.107,0.254v1.764h-0.003
	v-0.003h2.023v0.003H70.355z M72.856,16.212c0.101,0,0.186-0.034,0.257-0.104c0.072-0.069,0.107-0.153,0.107-0.253
	c0-0.1-0.035-0.186-0.107-0.257c-0.071-0.072-0.156-0.107-0.257-0.107h-1.771h-0.004v-0.003v-1.764c0-0.297-0.107-0.553-0.322-0.769
	c-0.216-0.215-0.472-0.323-0.769-0.323h-1.296c-0.297,0-0.552,0.108-0.765,0.323c-0.214,0.216-0.319,0.471-0.319,0.769v2.491h-0.004
	v-0.003H72.856z M72.856,16.219h-5.249h-0.003v-0.003v-2.491c0-0.298,0.107-0.556,0.321-0.772c0.215-0.217,0.471-0.325,0.77-0.325
	h1.296c0.298,0,0.556,0.108,0.772,0.325c0.217,0.217,0.325,0.475,0.325,0.773v1.764h-0.003v-0.003h1.771
	c0.102,0,0.189,0.037,0.262,0.109s0.108,0.16,0.108,0.261c0,0.102-0.036,0.188-0.108,0.258
	C73.046,16.184,72.958,16.219,72.856,16.219z M72.13,21.418c0.302,0,0.559-0.105,0.771-0.316s0.319-0.466,0.319-0.768V18.93
	c0-0.297-0.107-0.553-0.323-0.768c-0.215-0.216-0.471-0.323-0.768-0.323h-1.469v-0.003h0.003v1.44c0,0.1,0.035,0.184,0.106,0.253
	c0.072,0.069,0.157,0.104,0.258,0.104c0.1,0,0.184-0.034,0.253-0.104s0.104-0.153,0.104-0.253v-0.713V18.56h0.003h0.742
	c0.101,0,0.188,0.038,0.261,0.112c0.072,0.075,0.109,0.161,0.109,0.258v1.404c0,0.096-0.037,0.182-0.109,0.254
	s-0.16,0.109-0.261,0.109h-1.951c-0.164,0-0.313-0.051-0.448-0.152l0,0l0,0l-1.253-0.979l0.002-0.002l-0.002,0.002
	c-0.097-0.073-0.146-0.17-0.146-0.291v-1.073c0-0.1-0.035-0.186-0.107-0.257c-0.071-0.071-0.156-0.107-0.257-0.107
	c-0.096,0-0.178,0.036-0.25,0.107c-0.071,0.072-0.106,0.157-0.106,0.257v1.073c0,0.359,0.138,0.646,0.416,0.862l-0.002,0.002
	l0.002-0.002l1.268,0.979l0,0l0,0c0.259,0.201,0.553,0.302,0.884,0.302H72.13z M72.13,21.424h-1.951
	c-0.332,0-0.628-0.101-0.888-0.303l0.002-0.002l-0.002,0.002l-1.268-0.979l0,0l0,0c-0.278-0.216-0.419-0.505-0.419-0.866v-1.073
	c0-0.102,0.037-0.189,0.109-0.261c0.072-0.073,0.157-0.109,0.254-0.109c0.102,0,0.189,0.036,0.262,0.109
	c0.072,0.072,0.108,0.16,0.108,0.261v1.073c0,0.119,0.048,0.214,0.143,0.286l0,0l0,0l1.253,0.979l-0.002,0.002l0.002-0.002
	c0.134,0.101,0.282,0.151,0.445,0.151h1.951c0.1,0,0.186-0.036,0.257-0.107c0.071-0.071,0.107-0.154,0.107-0.25V18.93
	c0-0.095-0.036-0.179-0.107-0.253c-0.072-0.074-0.157-0.111-0.257-0.111h-0.742v-0.003h0.003v0.713c0,0.102-0.035,0.188-0.105,0.258
	c-0.069,0.07-0.156,0.105-0.257,0.105c-0.102,0-0.189-0.035-0.262-0.105c-0.072-0.07-0.109-0.156-0.109-0.258v-1.44v-0.003h0.004
	h1.469c0.298,0,0.556,0.108,0.772,0.325c0.216,0.216,0.324,0.474,0.324,0.772v1.404c0,0.303-0.107,0.561-0.321,0.772
	C72.691,21.318,72.433,21.424,72.13,21.424z"/>
<path d="M26.848,30.497h2.131v-4.162h-2.131V30.497z M26.121,30.497v-4.162c0-0.196,0.072-0.367,0.216-0.511
	c0.144-0.145,0.314-0.217,0.511-0.217h2.131c0.192,0,0.361,0.072,0.508,0.217c0.146,0.144,0.219,0.314,0.219,0.511v4.162
	c0,0.196-0.073,0.367-0.219,0.511s-0.316,0.216-0.508,0.216h-2.131c-0.197,0-0.367-0.072-0.511-0.216
	C26.193,30.864,26.121,30.693,26.121,30.497z M20.916,31.224v-2.448c0-0.196,0.072-0.365,0.216-0.507s0.314-0.213,0.511-0.213h2.131
	v-1.721h-2.499c-0.101,0-0.186-0.036-0.256-0.108c-0.069-0.071-0.104-0.158-0.104-0.259c0-0.096,0.035-0.18,0.104-0.252
	c0.07-0.072,0.155-0.108,0.256-0.108h2.499c0.192,0,0.361,0.072,0.507,0.217c0.146,0.144,0.22,0.314,0.22,0.511v1.721
	c0,0.192-0.072,0.36-0.216,0.504c-0.144,0.145-0.314,0.216-0.511,0.216h-2.131v1.722h2.491c0.101,0,0.187,0.035,0.259,0.107
	c0.072,0.072,0.108,0.156,0.108,0.252c0,0.101-0.036,0.188-0.108,0.26c-0.072,0.071-0.159,0.107-0.259,0.107H20.916z M15.71,31.224
	v-2.448c0-0.196,0.072-0.365,0.216-0.507s0.314-0.213,0.511-0.213h2.131v-1.721H16.07c-0.101,0-0.186-0.036-0.255-0.108
	c-0.07-0.071-0.104-0.158-0.104-0.259c0-0.096,0.035-0.18,0.104-0.252c0.069-0.072,0.155-0.108,0.255-0.108h2.499
	c0.192,0,0.361,0.072,0.508,0.217c0.146,0.144,0.219,0.314,0.219,0.511v1.721c0,0.192-0.072,0.36-0.216,0.504
	c-0.144,0.145-0.314,0.216-0.511,0.216h-2.131v1.722h2.491c0.101,0,0.188,0.035,0.259,0.107c0.072,0.072,0.108,0.156,0.108,0.252
	c0,0.101-0.036,0.188-0.108,0.26c-0.072,0.071-0.158,0.107-0.259,0.107H15.71z"/>
<path d="M26.845,30.497v-4.162v-0.003h0.003h2.131h0.003v0.003v4.162V30.5h-0.003h-2.131h-0.003V30.497z M26.848,30.493h2.131v0.004
	h-0.003v-4.162h0.003v0.003h-2.131v-0.003h0.003v4.162h-0.003V30.493z M26.124,30.497c0,0.195,0.072,0.365,0.215,0.509
	s0.313,0.215,0.509,0.215h2.131c0.191,0,0.359-0.071,0.505-0.215s0.219-0.313,0.219-0.509v-4.162c0-0.196-0.073-0.365-0.219-0.509
	s-0.314-0.216-0.505-0.216h-2.131c-0.196,0-0.365,0.072-0.509,0.216s-0.215,0.312-0.215,0.509V30.497z M26.118,30.497v-4.162
	c0-0.197,0.072-0.369,0.217-0.514c0.145-0.144,0.316-0.217,0.513-0.217h2.131c0.193,0,0.363,0.073,0.51,0.217
	c0.147,0.145,0.221,0.316,0.221,0.514v4.162c0,0.197-0.074,0.368-0.221,0.513s-0.317,0.217-0.51,0.217h-2.131
	c-0.197,0-0.369-0.072-0.513-0.217S26.118,30.694,26.118,30.497z M20.916,31.221h3.218c0.1,0,0.186-0.035,0.257-0.107
	c0.072-0.071,0.107-0.156,0.107-0.257c0-0.096-0.036-0.178-0.107-0.25c-0.071-0.071-0.157-0.106-0.257-0.106h-2.491H21.64v-0.003
	v-1.722v-0.003h0.003h2.131c0.196,0,0.365-0.071,0.509-0.215s0.215-0.311,0.215-0.502v-1.721c0-0.196-0.073-0.365-0.219-0.509
	s-0.314-0.216-0.505-0.216h-2.499c-0.1,0-0.185,0.036-0.253,0.107c-0.069,0.071-0.104,0.154-0.104,0.25
	c0,0.101,0.034,0.186,0.104,0.257c0.069,0.072,0.153,0.107,0.253,0.107h2.499h0.003v0.003v1.721v0.003h-0.003h-2.131
	c-0.196,0-0.366,0.07-0.509,0.212c-0.144,0.141-0.215,0.31-0.215,0.505v2.448h-0.003V31.221z M20.912,31.224v-2.448
	c0-0.197,0.073-0.367,0.217-0.51c0.144-0.142,0.316-0.213,0.513-0.213h2.131v0.003h-0.003v-1.721h0.003v0.003h-2.499
	c-0.102,0-0.188-0.036-0.258-0.108c-0.07-0.073-0.105-0.16-0.105-0.262c0-0.097,0.036-0.182,0.105-0.254s0.156-0.109,0.258-0.109
	h2.499c0.192,0,0.363,0.073,0.509,0.217c0.147,0.145,0.221,0.316,0.221,0.514v1.721c0,0.192-0.072,0.362-0.217,0.506
	c-0.145,0.145-0.316,0.218-0.513,0.218h-2.131v-0.004h0.003v1.722h-0.003v-0.004h2.491c0.102,0,0.189,0.037,0.261,0.109
	s0.109,0.157,0.109,0.254c0,0.102-0.037,0.189-0.109,0.262s-0.16,0.108-0.261,0.108h-3.218h-0.003V31.224z M15.71,31.221h3.218
	c0.1,0,0.186-0.035,0.257-0.107c0.071-0.071,0.107-0.156,0.107-0.257c0-0.096-0.036-0.178-0.107-0.25
	c-0.072-0.071-0.157-0.106-0.257-0.106h-2.491h-0.003v-0.003v-1.722v-0.003h0.003h2.131c0.196,0,0.365-0.071,0.509-0.215
	c0.144-0.144,0.215-0.311,0.215-0.502v-1.721c0-0.196-0.073-0.365-0.219-0.509s-0.314-0.216-0.505-0.216H16.07
	c-0.1,0-0.184,0.036-0.253,0.107s-0.104,0.154-0.104,0.25c0,0.101,0.034,0.186,0.104,0.257c0.069,0.072,0.153,0.107,0.253,0.107
	h2.499h0.003v0.003v1.721v0.003h-0.003h-2.131c-0.196,0-0.365,0.07-0.509,0.212c-0.144,0.141-0.215,0.31-0.215,0.505v2.448H15.71
	V31.221z M15.707,31.224v-2.448c0-0.197,0.072-0.367,0.217-0.51c0.145-0.142,0.316-0.213,0.513-0.213h2.131v0.003h-0.003v-1.721
	h0.003v0.003H16.07c-0.101,0-0.188-0.036-0.258-0.108c-0.07-0.073-0.105-0.16-0.105-0.262c0-0.097,0.035-0.182,0.105-0.254
	c0.07-0.072,0.157-0.109,0.258-0.109h2.499c0.192,0,0.363,0.073,0.51,0.217c0.147,0.145,0.22,0.316,0.22,0.514v1.721
	c0,0.192-0.072,0.362-0.217,0.506c-0.145,0.145-0.316,0.218-0.513,0.218h-2.131v-0.004h0.003v1.722h-0.003v-0.004h2.491
	c0.102,0,0.189,0.037,0.261,0.109c0.073,0.072,0.109,0.157,0.109,0.254c0,0.102-0.036,0.189-0.109,0.262
	c-0.072,0.072-0.16,0.108-0.261,0.108H15.71h-0.003V31.224z"/>
<path d="M64.641,26.88c0.058,0,0.113-0.015,0.166-0.043c0.053-0.029,0.094-0.06,0.122-0.09c0.029-0.031,0.066-0.076,0.111-0.134
	c0.046-0.058,0.076-0.096,0.091-0.115c0.058-0.072,0.086-0.148,0.086-0.23v-0.54c0-0.086-0.028-0.163-0.086-0.23l-0.533-0.619
	c-0.062-0.086-0.151-0.129-0.267-0.129h-0.864c-0.101,0-0.189,0.043-0.266,0.129l-0.533,0.619c-0.058,0.058-0.086,0.135-0.086,0.23
	v0.54c0,0.067,0.016,0.129,0.047,0.184c0.03,0.056,0.077,0.114,0.14,0.177s0.102,0.104,0.115,0.122
	c0.077,0.087,0.168,0.13,0.273,0.13H64.641z M64.641,27.607h-1.483c-0.229,0-0.416-0.051-0.558-0.151s-0.289-0.245-0.442-0.433
	c-0.02-0.023-0.034-0.043-0.044-0.058c-0.173-0.196-0.259-0.43-0.259-0.698v-0.54c0-0.076,0.009-0.151,0.025-0.223
	c0.017-0.072,0.033-0.131,0.05-0.177c0.018-0.046,0.05-0.104,0.098-0.177c0.048-0.071,0.079-0.117,0.094-0.137
	c0.014-0.019,0.055-0.065,0.122-0.14c0.067-0.075,0.104-0.117,0.108-0.126h-1.663c-0.097,0-0.181-0.035-0.252-0.104
	c-0.072-0.07-0.108-0.155-0.108-0.256s0.036-0.188,0.108-0.26c0.071-0.071,0.155-0.107,0.252-0.107h4.889
	c0.101,0,0.187,0.036,0.259,0.107c0.072,0.072,0.108,0.159,0.108,0.26s-0.036,0.186-0.108,0.256
	c-0.072,0.069-0.158,0.104-0.259,0.104h-0.115c0.105,0.11,0.186,0.2,0.241,0.27c0.055,0.069,0.109,0.169,0.162,0.299
	s0.079,0.267,0.079,0.41v0.54c0,0.053-0.003,0.103-0.008,0.147c-0.005,0.046-0.014,0.092-0.028,0.137
	c-0.015,0.046-0.027,0.086-0.04,0.119c-0.012,0.033-0.029,0.071-0.054,0.111c-0.024,0.041-0.043,0.073-0.058,0.098
	c-0.015,0.023-0.038,0.057-0.072,0.097c-0.033,0.041-0.056,0.068-0.068,0.083c-0.012,0.015-0.038,0.045-0.079,0.09
	c-0.041,0.046-0.065,0.073-0.075,0.083C65.255,27.482,64.981,27.607,64.641,27.607z M65.577,32.812h-3.355
	c-0.101,0-0.188-0.035-0.259-0.104c-0.072-0.069-0.108-0.155-0.108-0.256s0.036-0.187,0.108-0.259
	c0.071-0.072,0.158-0.108,0.259-0.108h0.245l-0.439-0.691c-0.115-0.182-0.173-0.376-0.173-0.583V30.4
	c0-0.293,0.102-0.544,0.306-0.752c0.204-0.209,0.45-0.318,0.738-0.328l2.679-0.086c0.101,0,0.187,0.034,0.259,0.104
	c0.072,0.07,0.108,0.155,0.108,0.256c0,0.097-0.035,0.181-0.104,0.252c-0.069,0.072-0.152,0.108-0.249,0.108l-2.671,0.094
	c-0.091,0.01-0.17,0.047-0.237,0.111s-0.101,0.146-0.101,0.241v0.511l0.756,1.174h2.239c0.101,0,0.187,0.036,0.259,0.108
	s0.108,0.158,0.108,0.259s-0.036,0.187-0.108,0.256S65.678,32.812,65.577,32.812z M64.331,37.298c0.13,0,0.26-0.071,0.389-0.213
	c0.13-0.142,0.194-0.276,0.194-0.406v-0.54c0-0.096-0.028-0.173-0.086-0.23l-0.533-0.619c-0.066-0.087-0.155-0.13-0.266-0.13h-0.562
	c-0.101,0-0.189,0.043-0.266,0.13l-0.533,0.619c-0.058,0.058-0.086,0.135-0.086,0.23v0.54c0,0.072,0.017,0.136,0.05,0.19
	c0.034,0.056,0.079,0.111,0.137,0.169s0.097,0.102,0.115,0.13c0.087,0.087,0.178,0.13,0.273,0.13H64.331z M64.331,38.018h-1.174
	c-0.053,0-0.105-0.004-0.158-0.011s-0.099-0.015-0.137-0.021s-0.081-0.024-0.13-0.051c-0.048-0.026-0.084-0.044-0.107-0.054
	c-0.024-0.01-0.059-0.033-0.104-0.072c-0.046-0.038-0.075-0.062-0.09-0.071c-0.015-0.01-0.043-0.04-0.087-0.091
	c-0.043-0.05-0.068-0.079-0.075-0.086s-0.034-0.038-0.079-0.094c-0.046-0.055-0.071-0.085-0.076-0.09
	c-0.173-0.197-0.259-0.43-0.259-0.698v-0.54c0-0.077,0.009-0.151,0.025-0.224c0.017-0.071,0.033-0.131,0.05-0.176
	c0.018-0.046,0.05-0.104,0.098-0.177s0.079-0.117,0.094-0.137c0.014-0.02,0.055-0.066,0.122-0.141s0.104-0.116,0.108-0.126h-0.13
	c-0.101,0-0.188-0.034-0.259-0.104c-0.072-0.069-0.108-0.154-0.108-0.255c0-0.102,0.036-0.188,0.108-0.26
	c0.071-0.072,0.158-0.107,0.259-0.107h3.945c0.077,0,0.147,0.004,0.213,0.014c0.064,0.01,0.128,0.031,0.19,0.065
	c0.062,0.033,0.111,0.059,0.147,0.075s0.086,0.057,0.147,0.119c0.062,0.062,0.102,0.1,0.115,0.111
	c0.015,0.012,0.058,0.059,0.13,0.141l0.101,0.122c0.173,0.197,0.26,0.43,0.26,0.698v1.52c0,0.101-0.035,0.188-0.104,0.259
	c-0.069,0.072-0.155,0.108-0.256,0.108s-0.188-0.036-0.259-0.108c-0.072-0.071-0.108-0.158-0.108-0.259v-1.52
	c0-0.067-0.017-0.128-0.051-0.184c-0.033-0.055-0.081-0.116-0.144-0.184s-0.101-0.107-0.115-0.122
	c-0.067-0.087-0.156-0.13-0.267-0.13h-1.015c0.101,0.11,0.18,0.202,0.237,0.273c0.058,0.072,0.114,0.173,0.169,0.303
	c0.056,0.13,0.083,0.264,0.083,0.403v0.54c0,0.072-0.009,0.146-0.025,0.22s-0.032,0.133-0.047,0.176
	c-0.014,0.044-0.047,0.102-0.097,0.173c-0.051,0.072-0.082,0.116-0.094,0.134c-0.012,0.017-0.054,0.063-0.126,0.14l-0.101,0.123
	C64.937,37.893,64.662,38.018,64.331,38.018z"/>
<path d="M64.641,26.883h-1.483c-0.105,0-0.198-0.044-0.275-0.131l0,0l0,0c-0.015-0.019-0.053-0.06-0.115-0.122
	s-0.109-0.122-0.141-0.177c-0.031-0.056-0.047-0.118-0.047-0.186v-0.54c0-0.097,0.028-0.174,0.087-0.232l0.002,0.002l-0.002-0.002
	l0.532-0.619l0,0l0,0c0.077-0.087,0.168-0.131,0.269-0.131h0.864c0.116,0,0.206,0.044,0.269,0.131l-0.002,0.002l0.002-0.002
	l0.533,0.619l0,0l0,0c0.058,0.068,0.087,0.146,0.087,0.232v0.54c0,0.082-0.029,0.16-0.087,0.232l-0.002-0.002l0.002,0.002
	c-0.015,0.02-0.044,0.058-0.09,0.115s-0.083,0.103-0.112,0.134c-0.028,0.031-0.069,0.062-0.123,0.09
	C64.755,26.868,64.699,26.883,64.641,26.883z M64.641,26.877c0.058,0,0.112-0.015,0.164-0.043c0.053-0.028,0.094-0.059,0.122-0.09
	c0.028-0.03,0.065-0.075,0.111-0.133s0.075-0.096,0.09-0.115l0,0l0,0c0.058-0.071,0.086-0.147,0.086-0.229v-0.54
	c0-0.086-0.028-0.161-0.086-0.229l0.003-0.002l-0.003,0.002l-0.532-0.619l0,0l0,0c-0.062-0.086-0.15-0.128-0.265-0.128h-0.864
	c-0.1,0-0.188,0.042-0.264,0.128l-0.002-0.002l0.002,0.002l-0.533,0.619l0,0l0,0c-0.057,0.058-0.085,0.134-0.085,0.229v0.54
	c0,0.067,0.015,0.128,0.046,0.183s0.078,0.113,0.14,0.176c0.062,0.062,0.102,0.104,0.116,0.122l-0.003,0.002l0.003-0.002
	c0.076,0.086,0.166,0.129,0.271,0.129H64.641z M64.641,27.604c0.341,0,0.612-0.124,0.818-0.373l0,0h0.001
	c0.009-0.01,0.034-0.037,0.075-0.083c0.041-0.045,0.067-0.075,0.079-0.09c0.012-0.014,0.035-0.042,0.068-0.083
	c0.033-0.04,0.058-0.072,0.071-0.097c0.015-0.023,0.034-0.056,0.058-0.097c0.024-0.041,0.042-0.078,0.054-0.111
	c0.013-0.033,0.025-0.073,0.04-0.118c0.015-0.046,0.023-0.091,0.028-0.137s0.008-0.095,0.008-0.147v-0.54
	c0-0.144-0.026-0.279-0.079-0.409c-0.053-0.129-0.106-0.229-0.162-0.298c-0.055-0.069-0.135-0.159-0.24-0.27l-0.005-0.006h0.007
	h0.115c0.1,0,0.186-0.034,0.257-0.104c0.071-0.068,0.107-0.152,0.107-0.253s-0.036-0.186-0.107-0.257
	c-0.071-0.072-0.157-0.107-0.257-0.107h-4.889c-0.096,0-0.179,0.035-0.25,0.107c-0.072,0.071-0.107,0.156-0.107,0.257
	s0.035,0.185,0.107,0.253c0.071,0.069,0.154,0.104,0.25,0.104h1.663h0.005l-0.003,0.005c-0.005,0.01-0.041,0.052-0.108,0.127
	c-0.066,0.074-0.107,0.121-0.122,0.14c-0.014,0.02-0.045,0.064-0.094,0.137c-0.048,0.072-0.08,0.131-0.097,0.176
	c-0.017,0.046-0.033,0.104-0.05,0.176c-0.017,0.072-0.025,0.146-0.025,0.223v0.54c0,0.269,0.086,0.5,0.259,0.696v0.001l0,0
	c0.01,0.014,0.023,0.033,0.043,0.057l-0.002,0.002l0.002-0.002c0.153,0.188,0.301,0.331,0.442,0.432
	c0.141,0.101,0.326,0.15,0.556,0.15H64.641z M64.641,27.61h-1.483c-0.23,0-0.417-0.051-0.56-0.152
	c-0.142-0.101-0.289-0.245-0.443-0.433l0,0l0,0c-0.019-0.023-0.033-0.043-0.043-0.058l0.002-0.002l-0.002,0.002
	c-0.173-0.197-0.26-0.431-0.26-0.7v-0.54c0-0.077,0.009-0.151,0.025-0.224s0.033-0.131,0.05-0.177
	c0.018-0.046,0.05-0.104,0.098-0.177c0.049-0.072,0.08-0.118,0.094-0.137c0.015-0.02,0.056-0.066,0.123-0.141
	c0.067-0.075,0.103-0.116,0.107-0.126l0.003,0.002v0.003h-1.663c-0.097,0-0.182-0.035-0.255-0.105
	c-0.072-0.07-0.108-0.156-0.108-0.258s0.036-0.189,0.108-0.262s0.158-0.108,0.255-0.108h4.889c0.102,0,0.188,0.036,0.261,0.108
	s0.109,0.16,0.109,0.262s-0.037,0.188-0.109,0.258s-0.159,0.105-0.261,0.105h-0.115v-0.003l0.002-0.003
	c0.105,0.111,0.187,0.201,0.241,0.271c0.056,0.07,0.109,0.17,0.162,0.3c0.054,0.13,0.08,0.268,0.08,0.411v0.54
	c0,0.053-0.003,0.103-0.008,0.148s-0.014,0.092-0.028,0.137c-0.015,0.046-0.028,0.086-0.04,0.119
	c-0.012,0.034-0.03,0.071-0.054,0.112c-0.024,0.041-0.044,0.073-0.058,0.097c-0.015,0.024-0.039,0.058-0.072,0.098
	c-0.034,0.041-0.057,0.068-0.068,0.083c-0.013,0.015-0.039,0.045-0.08,0.09c-0.04,0.046-0.065,0.073-0.075,0.083l-0.002-0.002
	l0.002,0.002C65.257,27.484,64.982,27.61,64.641,27.61z M65.577,32.81c0.1,0,0.186-0.034,0.257-0.104s0.107-0.153,0.107-0.254
	c0-0.1-0.036-0.186-0.107-0.257s-0.157-0.107-0.257-0.107h-2.239h-0.002l-0.001-0.001l-0.756-1.174v-0.001v-0.001V30.4
	c0-0.097,0.033-0.178,0.102-0.243c0.067-0.065,0.147-0.103,0.239-0.112l0,0l0,0l2.671-0.094l0,0l0,0
	c0.096,0,0.178-0.036,0.247-0.107c0.068-0.071,0.104-0.154,0.104-0.25c0-0.1-0.036-0.184-0.107-0.253s-0.157-0.104-0.257-0.104
	v-0.003v0.003l-2.679,0.086V29.32v0.003c-0.287,0.01-0.532,0.118-0.736,0.327c-0.203,0.208-0.305,0.458-0.305,0.75v0.41
	c0,0.206,0.058,0.399,0.172,0.582l-0.002,0.001l0.002-0.001l0.439,0.691l0.003,0.004h-0.005h-0.245
	c-0.101,0-0.186,0.036-0.257,0.107c-0.072,0.071-0.107,0.157-0.107,0.257c0,0.101,0.035,0.185,0.107,0.254
	c0.071,0.069,0.156,0.104,0.257,0.104H65.577z M65.577,32.815h-3.355c-0.102,0-0.188-0.035-0.262-0.105
	c-0.072-0.07-0.108-0.156-0.108-0.258s0.036-0.188,0.108-0.261c0.073-0.073,0.16-0.109,0.262-0.109h0.245v0.003l-0.003,0.002
	l-0.439-0.691l0,0l0,0c-0.115-0.183-0.173-0.378-0.173-0.585V30.4c0-0.293,0.103-0.545,0.307-0.755
	c0.204-0.209,0.451-0.318,0.74-0.328l2.679-0.086V29.23l0,0c0.102,0,0.188,0.036,0.261,0.105c0.072,0.07,0.109,0.156,0.109,0.258
	c0,0.097-0.035,0.182-0.105,0.254c-0.07,0.073-0.154,0.109-0.251,0.109v-0.003l0.001,0.003l-2.672,0.094v-0.003v0.003
	c-0.09,0.01-0.169,0.046-0.235,0.11s-0.1,0.144-0.1,0.239v0.511h-0.003l0.002-0.001l0.756,1.174l-0.002,0.001v-0.003h2.239
	c0.102,0,0.188,0.036,0.261,0.109c0.072,0.072,0.109,0.159,0.109,0.261s-0.037,0.188-0.109,0.258S65.679,32.815,65.577,32.815z
	 M64.331,37.301h-1.174c-0.097,0-0.188-0.044-0.275-0.131l0,0l0,0c-0.02-0.028-0.058-0.071-0.115-0.129s-0.104-0.115-0.137-0.17
	c-0.034-0.056-0.051-0.12-0.051-0.192v-0.54c0-0.097,0.028-0.175,0.087-0.232l0.002,0.002l-0.002-0.002l0.532-0.619l0,0l0,0
	c0.077-0.087,0.168-0.131,0.269-0.131h0.562c0.11,0,0.201,0.044,0.269,0.131l-0.003,0.002l0.003-0.002l0.532,0.619l-0.002,0.002
	l0.002-0.002c0.059,0.058,0.087,0.136,0.087,0.232v0.54c0,0.13-0.064,0.267-0.194,0.408C64.593,37.229,64.462,37.301,64.331,37.301z
	 M64.331,37.295c0.129,0,0.258-0.07,0.387-0.212c0.129-0.141,0.193-0.275,0.193-0.404v-0.54c0-0.096-0.028-0.171-0.085-0.229l0,0
	l0,0l-0.533-0.619l0,0l0,0c-0.066-0.086-0.154-0.129-0.264-0.129h-0.562c-0.1,0-0.188,0.043-0.264,0.129l-0.002-0.002l0.002,0.002
	L62.67,35.91l0,0l0,0c-0.057,0.058-0.085,0.133-0.085,0.229v0.54c0,0.071,0.017,0.134,0.05,0.189
	c0.033,0.055,0.079,0.11,0.136,0.168c0.059,0.058,0.097,0.102,0.116,0.13l-0.003,0.002l0.002-0.002
	c0.087,0.086,0.177,0.129,0.271,0.129H64.331z M64.331,38.015c0.331,0,0.604-0.124,0.818-0.373l0.003,0.002l-0.003-0.002
	l0.102-0.123l0,0l0,0c0.071-0.076,0.113-0.123,0.125-0.14c0.013-0.017,0.044-0.062,0.094-0.133c0.051-0.072,0.083-0.13,0.097-0.173
	c0.015-0.043,0.03-0.102,0.047-0.176s0.025-0.147,0.025-0.219v-0.54c0-0.139-0.027-0.272-0.083-0.402
	c-0.055-0.129-0.111-0.229-0.168-0.302c-0.058-0.071-0.137-0.163-0.238-0.273l-0.004-0.005h0.007h1.015
	c0.111,0,0.201,0.044,0.269,0.131l-0.002,0.002l0.002-0.002c0.015,0.014,0.053,0.055,0.115,0.122s0.111,0.129,0.145,0.185
	c0.034,0.056,0.051,0.117,0.051,0.185v1.52c0,0.1,0.036,0.186,0.107,0.257s0.156,0.107,0.257,0.107s0.185-0.036,0.254-0.107
	c0.068-0.071,0.104-0.156,0.104-0.257v-1.52c0-0.268-0.086-0.5-0.259-0.696l0,0l0,0l-0.101-0.122l0.002-0.002l-0.002,0.002
	c-0.072-0.082-0.115-0.129-0.13-0.141c-0.014-0.012-0.053-0.049-0.115-0.111s-0.11-0.102-0.146-0.118s-0.085-0.042-0.147-0.076
	c-0.062-0.033-0.126-0.055-0.19-0.064s-0.135-0.014-0.212-0.014h-3.945c-0.101,0-0.186,0.035-0.257,0.106
	c-0.072,0.072-0.107,0.157-0.107,0.258c0,0.1,0.035,0.184,0.107,0.253c0.071,0.069,0.156,0.104,0.257,0.104h0.13h0.005l-0.003,0.005
	c-0.005,0.01-0.041,0.052-0.108,0.126c-0.066,0.074-0.107,0.121-0.122,0.141c-0.014,0.019-0.045,0.064-0.094,0.137
	c-0.048,0.071-0.08,0.13-0.097,0.176c-0.017,0.045-0.033,0.104-0.05,0.176s-0.025,0.146-0.025,0.223v0.54
	c0,0.269,0.086,0.5,0.259,0.696l-0.003,0.002l0.003-0.002c0.005,0.005,0.029,0.035,0.075,0.09c0.046,0.056,0.072,0.087,0.079,0.094
	c0.008,0.007,0.032,0.036,0.076,0.086c0.043,0.051,0.071,0.08,0.085,0.09c0.015,0.01,0.045,0.034,0.091,0.072
	s0.08,0.062,0.104,0.071c0.024,0.01,0.061,0.028,0.108,0.055s0.091,0.043,0.129,0.05s0.084,0.015,0.137,0.021
	s0.104,0.011,0.157,0.011H64.331z M64.331,38.021h-1.174c-0.053,0-0.105-0.003-0.158-0.011c-0.053-0.007-0.099-0.015-0.137-0.021
	c-0.039-0.007-0.083-0.024-0.131-0.051s-0.084-0.044-0.107-0.054c-0.024-0.01-0.06-0.034-0.105-0.072
	c-0.046-0.039-0.075-0.062-0.09-0.072s-0.044-0.04-0.087-0.091c-0.043-0.05-0.068-0.079-0.075-0.086
	c-0.008-0.007-0.034-0.038-0.08-0.094c-0.045-0.055-0.07-0.085-0.075-0.09l0,0l0,0c-0.173-0.197-0.26-0.431-0.26-0.7v-0.54
	c0-0.077,0.009-0.151,0.025-0.224s0.033-0.132,0.05-0.177c0.018-0.046,0.05-0.105,0.098-0.178c0.049-0.071,0.08-0.117,0.094-0.137
	c0.015-0.02,0.056-0.066,0.123-0.141s0.103-0.116,0.107-0.125l0.003,0.001v0.003h-0.13c-0.102,0-0.188-0.035-0.262-0.105
	c-0.072-0.069-0.108-0.156-0.108-0.257c0-0.102,0.036-0.189,0.108-0.262c0.073-0.072,0.16-0.109,0.262-0.109h3.945
	c0.077,0,0.148,0.005,0.213,0.015c0.065,0.01,0.129,0.031,0.192,0.065c0.062,0.033,0.111,0.059,0.147,0.075
	c0.036,0.018,0.086,0.057,0.148,0.119c0.062,0.062,0.101,0.1,0.114,0.112c0.015,0.012,0.059,0.059,0.13,0.141l0,0l0,0l0.102,0.122
	l-0.003,0.002l0.003-0.002c0.173,0.197,0.26,0.431,0.26,0.7v1.52c0,0.102-0.035,0.188-0.105,0.261
	c-0.07,0.073-0.156,0.109-0.258,0.109s-0.188-0.036-0.261-0.109c-0.073-0.072-0.109-0.159-0.109-0.261v-1.52
	c0-0.066-0.017-0.127-0.05-0.182c-0.033-0.056-0.081-0.116-0.144-0.184s-0.101-0.107-0.115-0.122l0,0l0,0
	c-0.067-0.086-0.154-0.129-0.265-0.129h-1.015v-0.003l0.002-0.002c0.101,0.11,0.18,0.202,0.237,0.273
	c0.059,0.072,0.114,0.174,0.17,0.304s0.083,0.265,0.083,0.404v0.54c0,0.072-0.009,0.146-0.025,0.22
	c-0.017,0.075-0.032,0.134-0.047,0.177c-0.015,0.044-0.047,0.102-0.098,0.174c-0.05,0.072-0.081,0.116-0.094,0.133
	c-0.012,0.018-0.054,0.064-0.126,0.142l-0.002-0.003l0.002,0.002l-0.101,0.123l0,0l0,0C64.938,37.896,64.663,38.021,64.331,38.021z"
	/>
<line fill="none" stroke="#000000" stroke-width="1.728" stroke-linecap="round" stroke-miterlimit="10" x1="55.424" y1="30.456" x2="55.424" y2="27.592"/>
</svg>
